<?xml version="1.0" encoding="UTF-8"?>
<svg width="205px" height="52px" viewBox="0 0 205 52" version="1.1" xmlns="http://www.w3.org/2000/svg" xmlns:xlink="http://www.w3.org/1999/xlink">
    <title>Air</title>
    <g id="-Redesign-Phase-1a" stroke="none" stroke-width="1" fill="none" fill-rule="evenodd">
        <g id="NEw-Homepage-with-banner" transform="translate(14.000000, -1964.000000)">
            <g id="Air" transform="translate(-13.000000, 1964.838034)">
                <path d="M193.59375,33.2869656 L194.296875,31.4119656 L198.28125,32.3494656 L198.222656,31.2947781 L198.046875,30.8260281 L195.058594,28.8924344 C195.058594,28.8533719 195,28.7947781 194.882812,28.7166531 C194.765625,28.6385281 194.726562,28.5604031 194.765625,28.4822781 C195,27.3885281 195.117188,25.3963406 195.117188,22.5057156 C195.117188,22.2322781 195.273438,22.1346219 195.585938,22.2127469 L195.585938,22.2127469 L199.21875,22.9744656 L206.71875,25.8455594 C206.71875,24.8689969 206.542969,24.2635281 206.191406,24.0291531 L206.191406,24.0291531 L195.46875,16.3533719 L195.175781,9.73227811 C195.175781,8.91196561 195.009766,7.94516874 194.677734,6.83188749 C194.345703,5.71860624 193.984375,5.16196561 193.59375,5.16196561 C193.203125,5.16196561 192.841797,5.71860624 192.509766,6.83188749 C192.177734,7.94516874 192.011719,8.91196561 192.011719,9.73227811 C192.011719,11.6854031 191.914062,13.8924344 191.71875,16.3533719 L191.71875,16.3533719 L180.996094,24.0291531 C180.644531,24.2635281 180.46875,24.8689969 180.46875,25.8455594 L180.46875,25.8455594 L187.96875,22.9744656 L191.601562,22.2127469 L191.71875,22.1541531 C191.796875,22.1541531 191.875,22.18345 191.953125,22.2420437 C192.03125,22.3006375 192.070312,22.3885281 192.070312,22.5057156 C192.070312,25.3963406 192.1875,27.3885281 192.421875,28.4822781 C192.460938,28.5604031 192.421875,28.6385281 192.304688,28.7166531 C192.1875,28.7947781 192.128906,28.8533719 192.128906,28.8924344 L192.128906,28.8924344 L189.082031,30.8260281 C189.003906,30.9041531 188.964844,31.0604031 188.964844,31.2947781 L188.964844,31.2947781 L188.90625,32.3494656 L192.890625,31.4119656 L193.59375,33.2869656 Z" id="" fill="#FFFFFF" fill-rule="nonzero" transform="translate(193.593750, 19.224466) rotate(45.000000) translate(-193.593750, -19.224466) "></path>
                <path d="M183,31.4509135 C175.691558,40.8670803 169.295374,46.4593573 163.811451,48.2277444 C156.32312,50.6424875 148.276568,50.8926446 137.024299,48.2277444 C101.605072,39.839329 71.3947875,19.322338 46.2172408,25.4451016 C21.039694,31.5678652 19.0222434,40.4722438 0,60.3219223" id="Path-2" stroke="#FFFFFF" stroke-width="2" stroke-dasharray="4"></path>
            </g>
        </g>
    </g>
</svg>