<?xml version="1.0" encoding="UTF-8"?>
<svg width="30px" height="24px" viewBox="0 0 30 24" version="1.1" xmlns="http://www.w3.org/2000/svg" xmlns:xlink="http://www.w3.org/1999/xlink">
    <title>Icon/airplane Copy 3</title>
    <g id="Airport" stroke="none" stroke-width="1" fill="none" fill-rule="evenodd">
        <g id="Homepage-placeholder-Copy-2" transform="translate(-659.000000, -864.000000)" fill="#1C82C8" fill-rule="nonzero">
            <g id="icon-airport-blue" transform="translate(659.000000, 864.000000)">
                <path d="M16.2321429,23.9454545 C15.4285714,23.9454545 14.7857143,23.2909091 14.7857143,22.4727273 L14.6785714,13.4727273 L8.14285714,17.4 L7.66071429,20.0181818 C7.60714286,20.4 7.33928571,20.7272727 7.01785714,20.9454545 L6.16071429,21.4363636 C5.46428571,21.8181818 4.66071429,21.6 4.28571429,21 C4.17857143,20.8363636 4.125,20.6727273 4.125,20.5090909 L3.58928571,16.6909091 L0.535714286,14.2363636 C-0.0535714286,13.8 -0.160714286,12.9272727 0.321428571,12.3272727 C0.375,12.2181818 0.535714286,12.1090909 0.642857143,12 L1.5,11.4545455 C1.82142857,11.2909091 2.19642857,11.2363636 2.57142857,11.3454545 L5.08928571,12.2181818 L11.7321429,8.23636364 L3.96428571,3.70909091 C3.26785714,3.27272727 3,2.34545455 3.42857143,1.63636364 C3.53571429,1.41818182 3.75,1.2 3.96428571,1.09090909 L5.14285714,0.436363636 C5.51785714,0.218181818 5.94642857,0.218181818 6.32142857,0.327272727 L17.9464286,4.52727273 L23.8928571,0.981818182 C25.2857143,0.163636364 26.9464286,-0.163636364 28.5535714,0.109090909 C29.0357143,0.218181818 29.4642857,0.545454545 29.6785714,1.03636364 L29.6785714,1.03636364 C29.9464286,1.63636364 29.9464286,2.4 29.6785714,3 C29.0892857,4.30909091 28.125,5.4 26.9464286,6.10909091 L20.8928571,9.70909091 L18.8035714,21.9272727 C18.75,22.3636364 18.4821429,22.6909091 18.1607143,22.9636364 L17.0357143,23.6727273 C16.7678571,23.8363636 16.5,23.9454545 16.2321429,23.9454545 Z M15.6964286,11.5636364 L15.8571429,22.4181818 C15.8571429,22.5818182 15.9642857,22.6909091 16.0714286,22.7454545 C16.1785714,22.8 16.3392857,22.8 16.5,22.7454545 L17.625,22.0363636 C17.7321429,21.9818182 17.7857143,21.8727273 17.7857143,21.7636364 L19.9285714,9 L26.4107143,5.12727273 C27.4285714,4.52727273 28.2321429,3.6 28.7142857,2.50909091 C28.875,2.18181818 28.875,1.8 28.7142857,1.47272727 C28.6607143,1.30909091 28.5,1.2 28.3392857,1.14545455 C27,0.927272727 25.6071429,1.14545455 24.4285714,1.85454545 L18.0535714,5.67272727 L6,1.30909091 C5.89285714,1.25454545 5.78571429,1.25454545 5.67857143,1.30909091 L4.5,2.01818182 C4.28571429,2.12727273 4.23214286,2.34545455 4.33928571,2.56363636 C4.39285714,2.61818182 4.44642857,2.67272727 4.5,2.72727273 L13.875,8.23636364 L5.19642857,13.4181818 L2.25,12.3818182 C2.19642857,12.3272727 2.08928571,12.3272727 2.03571429,12.3818182 L1.17857143,12.8727273 C1.07142857,12.9818182 1.07142857,13.1454545 1.125,13.2545455 C1.125,13.2545455 1.17857143,13.3090909 1.17857143,13.3090909 L4.60714286,16.0363636 L5.14285714,20.2909091 C5.14285714,20.4 5.19642857,20.4545455 5.30357143,20.5090909 C5.35714286,20.5636364 5.46428571,20.5636364 5.51785714,20.5090909 L6.375,20.0181818 C6.42857143,19.9636364 6.48214286,19.9090909 6.48214286,19.8545455 L7.01785714,16.7454545 L15.6964286,11.5636364 Z" id="Shape"></path>
            </g>
        </g>
    </g>
</svg>