<?xml version="1.0" encoding="UTF-8"?>
<svg width="30px" height="24px" viewBox="0 0 30 24" version="1.1" xmlns="http://www.w3.org/2000/svg" xmlns:xlink="http://www.w3.org/1999/xlink">
    <title>Icon/airplane Copy 3</title>
    <g id="Airport" stroke="none" stroke-width="1" fill="none" fill-rule="evenodd">
        <g id="Homepage-Airport-transportation" transform="translate(-129.000000, -317.000000)" fill="#FFFFFF" fill-rule="nonzero">
            <g id="Group-16" transform="translate(110.000000, 300.000000)">
                <g id="icon-airport-blue" transform="translate(19.017790, 17.014794)">
                    <path d="M16.2143526,23.9306609 C15.4107812,23.9306609 14.7679241,23.2761155 14.7679241,22.4579336 L14.6607812,13.4579336 L8.12506691,17.3852064 L7.64292405,20.0033882 C7.58935262,20.3852064 7.32149548,20.7124791 7.00006691,20.9306609 L6.14292405,21.42157 C5.44649548,21.8033882 4.64292405,21.5852064 4.26792405,20.9852064 C4.16078119,20.82157 4.10720976,20.6579336 4.10720976,20.4942973 L3.57149548,16.6761155 L0.51792405,14.22157 C-0.0713616642,13.7852064 -0.178504521,12.9124791 0.303638336,12.3124791 C0.357209764,12.2033882 0.51792405,12.0942973 0.625066907,11.9852064 L1.48220976,11.4397518 C1.80363834,11.2761155 2.17863834,11.22157 2.55363834,11.3306609 L5.07149548,12.2033882 L11.7143526,8.22157 L3.94649548,3.69429727 C3.25006691,3.25793363 2.98220976,2.33066091 3.41078119,1.62157 C3.51792405,1.40338818 3.73220976,1.18520636 3.94649548,1.07611545 L5.12506691,0.421569997 C5.50006691,0.203388179 5.92863834,0.203388179 6.30363834,0.312479088 L17.9286383,4.51247909 L23.8750669,0.967024543 C25.2679241,0.148842725 26.9286383,-0.178430003 28.5357812,0.09429727 C29.0179241,0.203388179 29.4464955,0.530660906 29.6607812,1.02157 L29.6607812,1.02157 C29.9286383,1.62157 29.9286383,2.38520636 29.6607812,2.98520636 C29.0714955,4.29429727 28.1072098,5.38520636 26.9286383,6.09429727 L20.8750669,9.69429727 L18.7857812,21.9124791 C18.7322098,22.3488427 18.4643526,22.6761155 18.1429241,22.9488427 L17.0179241,23.6579336 C16.7500669,23.82157 16.4822098,23.9306609 16.2143526,23.9306609 Z M15.6786383,11.5488427 L15.8393526,22.4033882 C15.8393526,22.5670245 15.9464955,22.6761155 16.0536383,22.7306609 C16.1607812,22.7852064 16.3214955,22.7852064 16.4822098,22.7306609 L17.6072098,22.02157 C17.7143526,21.9670245 17.7679241,21.8579336 17.7679241,21.7488427 L19.9107812,8.98520636 L26.3929241,5.11247909 C27.4107812,4.51247909 28.2143526,3.58520636 28.6964955,2.49429727 C28.8572098,2.16702454 28.8572098,1.78520636 28.6964955,1.45793363 C28.6429241,1.29429727 28.4822098,1.18520636 28.3214955,1.13066091 C26.9822098,0.912479088 25.5893526,1.13066091 24.4107812,1.83975182 L18.0357812,5.65793363 L5.98220976,1.29429727 C5.87506691,1.23975182 5.76792405,1.23975182 5.66078119,1.29429727 L4.48220976,2.00338818 C4.26792405,2.11247909 4.21435262,2.33066091 4.32149548,2.54884272 C4.37506691,2.60338818 4.42863834,2.65793363 4.48220976,2.71247909 L13.8572098,8.22157 L5.17863834,13.4033882 L2.23220976,12.3670245 C2.17863834,12.3124791 2.07149548,12.3124791 2.01792405,12.3670245 L1.16078119,12.8579336 C1.05363834,12.9670245 1.05363834,13.1306609 1.10720976,13.2397518 C1.10720976,13.2397518 1.16078119,13.2942973 1.16078119,13.2942973 L4.58935262,16.02157 L5.12506691,20.2761155 C5.12506691,20.3852064 5.17863834,20.4397518 5.28578119,20.4942973 C5.33935262,20.5488427 5.44649548,20.5488427 5.50006691,20.4942973 L6.35720976,20.0033882 C6.41078119,19.9488427 6.46435262,19.8942973 6.46435262,19.8397518 L7.00006691,16.7306609 L15.6786383,11.5488427 Z" id="Airport-Section"></path>
                </g>
            </g>
        </g>
    </g>
</svg>