<?xml version="1.0" encoding="UTF-8"?>
<svg width="172px" height="66px" viewBox="0 0 172 66" version="1.1" xmlns="http://www.w3.org/2000/svg" xmlns:xlink="http://www.w3.org/1999/xlink">
    <title>Group 14</title>
    <defs>
        <rect id="path-1" x="0" y="0" width="156" height="50" rx="6"></rect>
        <filter x="-8.3%" y="-22.0%" width="116.7%" height="152.0%" filterUnits="objectBoundingBox" id="filter-2">
            <feOffset dx="0" dy="2" in="SourceAlpha" result="shadowOffsetOuter1"></feOffset>
            <feGaussianBlur stdDeviation="4" in="shadowOffsetOuter1" result="shadowBlurOuter1"></feGaussianBlur>
            <feColorMatrix values="0 0 0 0 0   0 0 0 0 0   0 0 0 0 0  0 0 0 0.1582441 0" type="matrix" in="shadowBlurOuter1"></feColorMatrix>
        </filter>
    </defs>
    <g id="-Redesign-Phase-1a" stroke="none" stroke-width="1" fill="none" fill-rule="evenodd">
        <g id="Group-14" transform="translate(8.000000, 6.000000)">
            <g id="Rectangle-Copy-103">
                <use fill="black" fill-opacity="1" filter="url(#filter-2)" xlink:href="#path-1"></use>
                <use fill="#FFFFFF" fill-rule="evenodd" xlink:href="#path-1"></use>
            </g>
            <path d="M32.8046778,24.7736916 C32.8046778,22.1444156 34.2699677,19.8965087 36.3498383,18.9508375 C35.7708385,18.2253062 34.994526,17.5431827 33.9497387,16.8300536 C32.5976611,15.9060864 29.6023887,15.8006673 27.6389649,16.2812543 C26.147798,16.64402 24.8765862,17.3447468 24.1973128,17.3757524 C23.582732,17.406758 22.2630007,16.6192155 20.7556606,16.2812543 C18.9377955,15.8719802 16.9549639,16.1014217 15.5931824,16.8300536 C11.6339886,18.9508375 11,21.1181298 11,25.5953403 C11,30.7546742 12.9504852,35.1295661 17.3107738,38.1991218 C18.2682259,38.8719436 19.989052,39.2688154 21.3281911,38.7479211 C22.4797213,38.2983397 23.0943021,37.7495404 24.1973128,37.653423 C25.8081612,37.5138977 26.5585967,38.0316915 27.3349092,38.4936751 C28.0400597,38.9122509 29.6670814,39.2502121 30.5080866,38.7510217 C33.4548395,37.0023051 35.7740732,34.1435877 37,30.8445905 C34.5804927,30.1004558 32.8046778,27.6665152 32.8046778,24.7736916 Z M26.9180388,13.0007827 C28.015487,11.3936881 28.0185187,8.99153426 27.9942657,9 C27.5395219,9.14149203 26.0055196,8.80762378 23.6923897,10.4996002 C22.8859774,11.0909431 21.894636,12.5452506 21.5399358,13.4987557 C21.2701212,14.2230801 21.0063698,15.9971089 21.0003066,16 C20.9730219,16.0027677 22.7738072,15.9093977 23.689358,15.4991359 C24.6291618,15.0803859 26.2086385,14.041999 26.9180388,13.0007827 Z" id="Shape-Copy-2" fill="#000000" fill-rule="nonzero"></path>
            <path d="M52.26,19 C52.892,19 53.468,18.897 53.988,18.691 C54.508,18.485 54.954,18.194 55.326,17.818 C55.698,17.442 55.986,16.99 56.19,16.462 C56.394,15.934 56.496,15.348 56.496,14.704 C56.496,14.06 56.394,13.474 56.19,12.946 C55.986,12.418 55.698,11.965 55.326,11.587 C54.954,11.209 54.508,10.917 53.988,10.711 C53.468,10.505 52.892,10.402 52.26,10.402 L52.26,10.402 L49.044,10.402 L49.044,19 L52.26,19 Z M52.26,18.058 L50.214,18.058 L50.214,11.344 L52.26,11.344 C52.72,11.344 53.138,11.42 53.514,11.572 C53.89,11.724 54.21,11.944 54.474,12.232 C54.738,12.52 54.942,12.872 55.086,13.288 C55.23,13.704 55.302,14.176 55.302,14.704 C55.302,15.232 55.23,15.704 55.086,16.12 C54.942,16.536 54.738,16.887 54.474,17.173 C54.21,17.459 53.89,17.678 53.514,17.83 C53.138,17.982 52.72,18.058 52.26,18.058 L52.26,18.058 Z M60.372,19.084 C60.816,19.084 61.217,19.011 61.575,18.865 C61.933,18.719 62.237,18.51 62.487,18.238 C62.737,17.966 62.929,17.638 63.063,17.254 C63.197,16.87 63.264,16.438 63.264,15.958 C63.264,15.482 63.197,15.051 63.063,14.665 C62.929,14.279 62.737,13.95 62.487,13.678 C62.237,13.406 61.933,13.196 61.575,13.048 C61.217,12.9 60.816,12.826 60.372,12.826 C59.928,12.826 59.527,12.9 59.169,13.048 C58.811,13.196 58.506,13.406 58.254,13.678 C58.002,13.95 57.808,14.279 57.672,14.665 C57.536,15.051 57.468,15.482 57.468,15.958 C57.468,16.438 57.536,16.87 57.672,17.254 C57.808,17.638 58.002,17.966 58.254,18.238 C58.506,18.51 58.811,18.719 59.169,18.865 C59.527,19.011 59.928,19.084 60.372,19.084 Z M60.372,18.25 C60.068,18.25 59.804,18.198 59.58,18.094 C59.356,17.99 59.169,17.841 59.019,17.647 C58.869,17.453 58.757,17.214 58.683,16.93 C58.609,16.646 58.572,16.324 58.572,15.964 C58.572,15.604 58.609,15.281 58.683,14.995 C58.757,14.709 58.869,14.468 59.019,14.272 C59.169,14.076 59.356,13.926 59.58,13.822 C59.804,13.718 60.068,13.666 60.372,13.666 C60.972,13.666 61.42,13.868 61.716,14.272 C62.012,14.676 62.16,15.24 62.16,15.964 C62.16,16.684 62.012,17.245 61.716,17.647 C61.42,18.049 60.972,18.25 60.372,18.25 Z M66.564,19 C66.684,19 66.766,18.932 66.81,18.796 L66.81,18.796 L68.172,14.68 C68.204,14.588 68.23,14.494 68.25,14.398 C68.27,14.302 68.29,14.208 68.31,14.116 C68.33,14.208 68.35,14.301 68.37,14.395 C68.39,14.489 68.416,14.582 68.448,14.674 L68.448,14.674 L69.792,18.796 C69.832,18.932 69.904,19 70.008,19 L70.008,19 L70.854,19 L72.822,12.922 L72.018,12.922 C71.942,12.922 71.876,12.943 71.82,12.985 C71.764,13.027 71.726,13.08 71.706,13.144 L71.706,13.144 L70.518,17.056 C70.482,17.18 70.448,17.314 70.416,17.458 C70.384,17.602 70.358,17.74 70.338,17.872 C70.306,17.74 70.273,17.606 70.239,17.47 C70.205,17.334 70.166,17.196 70.122,17.056 L70.122,17.056 L68.868,13.12 C68.848,13.06 68.812,13.01 68.76,12.97 C68.708,12.93 68.642,12.91 68.562,12.91 L68.562,12.91 L68.1,12.91 C68.024,12.91 67.961,12.93 67.911,12.97 C67.861,13.01 67.826,13.06 67.806,13.12 L67.806,13.12 L66.522,17.056 C66.478,17.2 66.436,17.339 66.396,17.473 C66.356,17.607 66.32,17.742 66.288,17.878 C66.268,17.742 66.244,17.607 66.216,17.473 C66.188,17.339 66.158,17.2 66.126,17.056 L66.126,17.056 L64.962,13.144 C64.942,13.084 64.904,13.032 64.848,12.988 C64.792,12.944 64.72,12.922 64.632,12.922 L64.632,12.922 L63.792,12.922 L65.76,19 L66.564,19 Z M74.844,19 L74.844,14.524 C75.076,14.264 75.329,14.058 75.603,13.906 C75.877,13.754 76.172,13.678 76.488,13.678 C76.92,13.678 77.241,13.805 77.451,14.059 C77.661,14.313 77.766,14.67 77.766,15.13 L77.766,15.13 L77.766,19 L78.834,19 L78.834,15.13 C78.834,14.786 78.79,14.472 78.702,14.188 C78.614,13.904 78.485,13.661 78.315,13.459 C78.145,13.257 77.933,13.101 77.679,12.991 C77.425,12.881 77.132,12.826 76.8,12.826 C76.372,12.826 75.995,12.916 75.669,13.096 C75.343,13.276 75.048,13.512 74.784,13.804 L74.784,13.804 L74.7,13.144 C74.66,12.996 74.564,12.922 74.412,12.922 L74.412,12.922 L73.776,12.922 L73.776,19 L74.844,19 Z M81.636,19 L81.636,10.162 L80.568,10.162 L80.568,19 L81.636,19 Z M85.98,19.084 C86.424,19.084 86.825,19.011 87.183,18.865 C87.541,18.719 87.845,18.51 88.095,18.238 C88.345,17.966 88.537,17.638 88.671,17.254 C88.805,16.87 88.872,16.438 88.872,15.958 C88.872,15.482 88.805,15.051 88.671,14.665 C88.537,14.279 88.345,13.95 88.095,13.678 C87.845,13.406 87.541,13.196 87.183,13.048 C86.825,12.9 86.424,12.826 85.98,12.826 C85.536,12.826 85.135,12.9 84.777,13.048 C84.419,13.196 84.114,13.406 83.862,13.678 C83.61,13.95 83.416,14.279 83.28,14.665 C83.144,15.051 83.076,15.482 83.076,15.958 C83.076,16.438 83.144,16.87 83.28,17.254 C83.416,17.638 83.61,17.966 83.862,18.238 C84.114,18.51 84.419,18.719 84.777,18.865 C85.135,19.011 85.536,19.084 85.98,19.084 Z M85.98,18.25 C85.676,18.25 85.412,18.198 85.188,18.094 C84.964,17.99 84.777,17.841 84.627,17.647 C84.477,17.453 84.365,17.214 84.291,16.93 C84.217,16.646 84.18,16.324 84.18,15.964 C84.18,15.604 84.217,15.281 84.291,14.995 C84.365,14.709 84.477,14.468 84.627,14.272 C84.777,14.076 84.964,13.926 85.188,13.822 C85.412,13.718 85.676,13.666 85.98,13.666 C86.58,13.666 87.028,13.868 87.324,14.272 C87.62,14.676 87.768,15.24 87.768,15.964 C87.768,16.684 87.62,17.245 87.324,17.647 C87.028,18.049 86.58,18.25 85.98,18.25 Z M91.566,19.096 C91.798,19.096 92.009,19.076 92.199,19.036 C92.389,18.996 92.568,18.937 92.736,18.859 C92.904,18.781 93.064,18.685 93.216,18.571 C93.368,18.457 93.524,18.328 93.684,18.184 L93.684,18.184 L93.804,18.748 C93.824,18.852 93.866,18.92 93.93,18.952 C93.994,18.984 94.078,19 94.182,19 L94.182,19 L94.656,19 L94.656,15.112 C94.656,14.772 94.61,14.46 94.518,14.176 C94.426,13.892 94.29,13.65 94.11,13.45 C93.93,13.25 93.708,13.094 93.444,12.982 C93.18,12.87 92.878,12.814 92.538,12.814 C92.066,12.814 91.636,12.894 91.248,13.054 C90.86,13.214 90.498,13.456 90.162,13.78 L90.162,13.78 L90.354,14.122 C90.386,14.178 90.429,14.225 90.483,14.263 C90.537,14.301 90.6,14.32 90.672,14.32 C90.764,14.32 90.857,14.287 90.951,14.221 C91.045,14.155 91.157,14.081 91.287,13.999 C91.417,13.917 91.571,13.843 91.749,13.777 C91.927,13.711 92.146,13.678 92.406,13.678 C92.802,13.678 93.101,13.799 93.303,14.041 C93.505,14.283 93.606,14.64 93.606,15.112 L93.606,15.112 L93.606,15.586 C92.918,15.602 92.336,15.665 91.86,15.775 C91.384,15.885 90.999,16.026 90.705,16.198 C90.411,16.37 90.198,16.567 90.066,16.789 C89.934,17.011 89.868,17.242 89.868,17.482 C89.868,17.758 89.913,17.997 90.003,18.199 C90.093,18.401 90.214,18.568 90.366,18.7 C90.518,18.832 90.697,18.931 90.903,18.997 C91.109,19.063 91.33,19.096 91.566,19.096 Z M91.884,18.346 C91.744,18.346 91.614,18.329 91.494,18.295 C91.374,18.261 91.27,18.207 91.182,18.133 C91.094,18.059 91.024,17.964 90.972,17.848 C90.92,17.732 90.894,17.594 90.894,17.434 C90.894,17.266 90.943,17.114 91.041,16.978 C91.139,16.842 91.296,16.724 91.512,16.624 C91.728,16.524 92.008,16.443 92.352,16.381 C92.696,16.319 93.114,16.28 93.606,16.264 L93.606,16.264 L93.606,17.53 C93.486,17.658 93.363,17.772 93.237,17.872 C93.111,17.972 92.979,18.057 92.841,18.127 C92.703,18.197 92.556,18.251 92.4,18.289 C92.244,18.327 92.072,18.346 91.884,18.346 Z M98.13,19.084 C98.562,19.084 98.945,18.989 99.279,18.799 C99.613,18.609 99.91,18.356 100.17,18.04 L100.17,18.04 L100.266,18.778 C100.306,18.926 100.402,19 100.554,19 L100.554,19 L101.19,19 L101.19,10.162 L100.122,10.162 L100.122,13.534 C99.914,13.306 99.678,13.129 99.414,13.003 C99.15,12.877 98.832,12.814 98.46,12.814 C98.048,12.814 97.68,12.895 97.356,13.057 C97.032,13.219 96.757,13.442 96.531,13.726 C96.305,14.01 96.132,14.345 96.012,14.731 C95.892,15.117 95.832,15.534 95.832,15.982 C95.832,16.486 95.886,16.932 95.994,17.32 C96.102,17.708 96.256,18.032 96.456,18.292 C96.656,18.552 96.898,18.749 97.182,18.883 C97.466,19.017 97.782,19.084 98.13,19.084 Z M98.484,18.22 C98.236,18.22 98.016,18.178 97.824,18.094 C97.632,18.01 97.47,17.877 97.338,17.695 C97.206,17.513 97.106,17.281 97.038,16.999 C96.97,16.717 96.936,16.378 96.936,15.982 C96.936,15.234 97.088,14.658 97.392,14.254 C97.696,13.85 98.132,13.648 98.7,13.648 C98.984,13.648 99.243,13.701 99.477,13.807 C99.711,13.913 99.926,14.098 100.122,14.362 L100.122,14.362 L100.122,17.302 C99.902,17.594 99.661,17.82 99.399,17.98 C99.137,18.14 98.832,18.22 98.484,18.22 Z M105.96,11.77 C106.064,11.77 106.162,11.75 106.254,11.71 C106.346,11.67 106.427,11.615 106.497,11.545 C106.567,11.475 106.623,11.395 106.665,11.305 C106.707,11.215 106.728,11.118 106.728,11.014 C106.728,10.91 106.707,10.811 106.665,10.717 C106.623,10.623 106.567,10.541 106.497,10.471 C106.427,10.401 106.346,10.346 106.254,10.306 C106.162,10.266 106.064,10.246 105.96,10.246 C105.856,10.246 105.759,10.266 105.669,10.306 C105.579,10.346 105.499,10.401 105.429,10.471 C105.359,10.541 105.304,10.623 105.264,10.717 C105.224,10.811 105.204,10.91 105.204,11.014 C105.204,11.118 105.224,11.215 105.264,11.305 C105.304,11.395 105.359,11.475 105.429,11.545 C105.499,11.615 105.579,11.67 105.669,11.71 C105.759,11.75 105.856,11.77 105.96,11.77 Z M106.488,19 L106.488,12.922 L105.42,12.922 L105.42,19 L106.488,19 Z M110.214,19.096 C110.49,19.096 110.758,19.047 111.018,18.949 C111.278,18.851 111.5,18.716 111.684,18.544 L111.684,18.544 L111.372,18.034 C111.328,17.966 111.278,17.932 111.222,17.932 C111.19,17.932 111.153,17.947 111.111,17.977 C111.069,18.007 111.018,18.04 110.958,18.076 C110.898,18.112 110.827,18.145 110.745,18.175 C110.663,18.205 110.566,18.22 110.454,18.22 C110.258,18.22 110.098,18.158 109.974,18.034 C109.85,17.91 109.788,17.72 109.788,17.464 L109.788,17.464 L109.788,13.816 L111.528,13.816 L111.528,13.042 L109.788,13.042 L109.788,10.948 L109.248,10.948 C109.18,10.948 109.124,10.967 109.08,11.005 C109.036,11.043 109.01,11.092 109.002,11.152 L109.002,11.152 L108.756,13.03 L107.76,13.156 L107.76,13.582 C107.76,13.662 107.782,13.721 107.826,13.759 C107.87,13.797 107.924,13.816 107.988,13.816 L107.988,13.816 L108.72,13.816 L108.72,17.536 C108.72,18.04 108.849,18.426 109.107,18.694 C109.365,18.962 109.734,19.096 110.214,19.096 Z M117.624,19.084 C118.068,19.084 118.469,19.011 118.827,18.865 C119.185,18.719 119.489,18.51 119.739,18.238 C119.989,17.966 120.181,17.638 120.315,17.254 C120.449,16.87 120.516,16.438 120.516,15.958 C120.516,15.482 120.449,15.051 120.315,14.665 C120.181,14.279 119.989,13.95 119.739,13.678 C119.489,13.406 119.185,13.196 118.827,13.048 C118.469,12.9 118.068,12.826 117.624,12.826 C117.18,12.826 116.779,12.9 116.421,13.048 C116.063,13.196 115.758,13.406 115.506,13.678 C115.254,13.95 115.06,14.279 114.924,14.665 C114.788,15.051 114.72,15.482 114.72,15.958 C114.72,16.438 114.788,16.87 114.924,17.254 C115.06,17.638 115.254,17.966 115.506,18.238 C115.758,18.51 116.063,18.719 116.421,18.865 C116.779,19.011 117.18,19.084 117.624,19.084 Z M117.624,18.25 C117.32,18.25 117.056,18.198 116.832,18.094 C116.608,17.99 116.421,17.841 116.271,17.647 C116.121,17.453 116.009,17.214 115.935,16.93 C115.861,16.646 115.824,16.324 115.824,15.964 C115.824,15.604 115.861,15.281 115.935,14.995 C116.009,14.709 116.121,14.468 116.271,14.272 C116.421,14.076 116.608,13.926 116.832,13.822 C117.056,13.718 117.32,13.666 117.624,13.666 C118.224,13.666 118.672,13.868 118.968,14.272 C119.264,14.676 119.412,15.24 119.412,15.964 C119.412,16.684 119.264,17.245 118.968,17.647 C118.672,18.049 118.224,18.25 117.624,18.25 Z M122.904,19 L122.904,14.524 C123.136,14.264 123.389,14.058 123.663,13.906 C123.937,13.754 124.232,13.678 124.548,13.678 C124.98,13.678 125.301,13.805 125.511,14.059 C125.721,14.313 125.826,14.67 125.826,15.13 L125.826,15.13 L125.826,19 L126.894,19 L126.894,15.13 C126.894,14.786 126.85,14.472 126.762,14.188 C126.674,13.904 126.545,13.661 126.375,13.459 C126.205,13.257 125.993,13.101 125.739,12.991 C125.485,12.881 125.192,12.826 124.86,12.826 C124.432,12.826 124.055,12.916 123.729,13.096 C123.403,13.276 123.108,13.512 122.844,13.804 L122.844,13.804 L122.76,13.144 C122.72,12.996 122.624,12.922 122.472,12.922 L122.472,12.922 L121.836,12.922 L121.836,19 L122.904,19 Z" id="Downloaditon" fill="#06262D" fill-rule="nonzero"></path>
            <path d="M49.72,39 C49.9013333,39 50.0546667,38.9493333 50.18,38.848 C50.3053333,38.7466667 50.3893333,38.6346667 50.432,38.512 L50.432,38.512 L51.296,36.152 L56.088,36.152 L56.952,38.512 C57.0053333,38.6506667 57.092,38.7666667 57.212,38.86 C57.332,38.9533333 57.4853333,39 57.672,39 L57.672,39 L59.336,39 L54.792,27.432 L52.592,27.432 L48.048,39 L49.72,39 Z M55.536,34.632 L51.848,34.632 L53.256,30.8 C53.3253333,30.624 53.396,30.4186667 53.468,30.184 C53.54,29.9493333 53.6133333,29.696 53.688,29.424 C53.7626667,29.696 53.8386667,29.948 53.916,30.18 C53.9933333,30.412 54.064,30.6133333 54.128,30.784 L54.128,30.784 L55.536,34.632 Z M62.392,41.68 L62.392,38.32 C62.648,38.5706667 62.9373333,38.7666667 63.26,38.908 C63.5826667,39.0493333 63.976,39.12 64.44,39.12 C64.9786667,39.12 65.4653333,39.012 65.9,38.796 C66.3346667,38.58 66.7053333,38.28 67.012,37.896 C67.3186667,37.512 67.5546667,37.0586667 67.72,36.536 C67.8853333,36.0133333 67.968,35.4453333 67.968,34.832 C67.968,34.16 67.8946667,33.564 67.748,33.044 C67.6013333,32.524 67.3933333,32.0866667 67.124,31.732 C66.8546667,31.3773333 66.5346667,31.1066667 66.164,30.92 C65.7933333,30.7333333 65.384,30.64 64.936,30.64 C64.36,30.64 63.8573333,30.7573333 63.428,30.992 C62.9986667,31.2266667 62.6186667,31.5333333 62.288,31.912 L62.288,31.912 L62.128,31.152 C62.1013333,31.0293333 62.0426667,30.9386667 61.952,30.88 C61.8613333,30.8213333 61.752,30.792 61.624,30.792 L61.624,30.792 L60.416,30.792 L60.416,41.68 L62.392,41.68 Z M63.976,37.616 C63.672,37.616 63.388,37.5613333 63.124,37.452 C62.86,37.3426667 62.616,37.1493333 62.392,36.872 L62.392,36.872 L62.392,33.192 C62.6426667,32.8773333 62.9133333,32.6333333 63.204,32.46 C63.4946667,32.2866667 63.8453333,32.2 64.256,32.2 C64.5173333,32.2 64.7506667,32.248 64.956,32.344 C65.1613333,32.44 65.336,32.592 65.48,32.8 C65.624,33.008 65.7346667,33.2786667 65.812,33.612 C65.8893333,33.9453333 65.928,34.352 65.928,34.832 C65.928,35.3066667 65.8826667,35.7186667 65.792,36.068 C65.7013333,36.4173333 65.572,36.7066667 65.404,36.936 C65.236,37.1653333 65.0306667,37.336 64.788,37.448 C64.5453333,37.56 64.2746667,37.616 63.976,37.616 Z M71.44,41.68 L71.44,38.32 C71.696,38.5706667 71.9853333,38.7666667 72.308,38.908 C72.6306667,39.0493333 73.024,39.12 73.488,39.12 C74.0266667,39.12 74.5133333,39.012 74.948,38.796 C75.3826667,38.58 75.7533333,38.28 76.06,37.896 C76.3666667,37.512 76.6026667,37.0586667 76.768,36.536 C76.9333333,36.0133333 77.016,35.4453333 77.016,34.832 C77.016,34.16 76.9426667,33.564 76.796,33.044 C76.6493333,32.524 76.4413333,32.0866667 76.172,31.732 C75.9026667,31.3773333 75.5826667,31.1066667 75.212,30.92 C74.8413333,30.7333333 74.432,30.64 73.984,30.64 C73.408,30.64 72.9053333,30.7573333 72.476,30.992 C72.0466667,31.2266667 71.6666667,31.5333333 71.336,31.912 L71.336,31.912 L71.176,31.152 C71.1493333,31.0293333 71.0906667,30.9386667 71,30.88 C70.9093333,30.8213333 70.8,30.792 70.672,30.792 L70.672,30.792 L69.464,30.792 L69.464,41.68 L71.44,41.68 Z M73.024,37.616 C72.72,37.616 72.436,37.5613333 72.172,37.452 C71.908,37.3426667 71.664,37.1493333 71.44,36.872 L71.44,36.872 L71.44,33.192 C71.6906667,32.8773333 71.9613333,32.6333333 72.252,32.46 C72.5426667,32.2866667 72.8933333,32.2 73.304,32.2 C73.5653333,32.2 73.7986667,32.248 74.004,32.344 C74.2093333,32.44 74.384,32.592 74.528,32.8 C74.672,33.008 74.7826667,33.2786667 74.86,33.612 C74.9373333,33.9453333 74.976,34.352 74.976,34.832 C74.976,35.3066667 74.9306667,35.7186667 74.84,36.068 C74.7493333,36.4173333 74.62,36.7066667 74.452,36.936 C74.284,37.1653333 74.0786667,37.336 73.836,37.448 C73.5933333,37.56 73.3226667,37.616 73.024,37.616 Z M80.616,39 L80.616,27.112 L78.64,27.112 L78.64,39 L80.616,39 Z M86.336,39.12 C86.624,39.12 86.9213333,39.0986667 87.228,39.056 C87.5346667,39.0133333 87.836,38.94 88.132,38.836 C88.428,38.732 88.712,38.5933333 88.984,38.42 C89.256,38.2466667 89.5013333,38.032 89.72,37.776 L89.72,37.776 L89.144,37.056 C89.1013333,36.9973333 89.0506667,36.952 88.992,36.92 C88.9333333,36.888 88.864,36.872 88.784,36.872 C88.6613333,36.872 88.5346667,36.9093333 88.404,36.984 C88.2733333,37.0586667 88.1213333,37.1413333 87.948,37.232 C87.7746667,37.3226667 87.572,37.4053333 87.34,37.48 C87.108,37.5546667 86.832,37.592 86.512,37.592 C85.8613333,37.592 85.3386667,37.3946667 84.944,37 C84.5493333,36.6053333 84.3226667,35.9866667 84.264,35.144 L84.264,35.144 L89.336,35.144 C89.4266667,35.144 89.5013333,35.132 89.56,35.108 C89.6186667,35.084 89.6653333,35.044 89.7,34.988 C89.7346667,34.932 89.7586667,34.8546667 89.772,34.756 C89.7853333,34.6573333 89.792,34.5333333 89.792,34.384 C89.792,33.792 89.704,33.2653333 89.528,32.804 C89.352,32.3426667 89.1066667,31.9533333 88.792,31.636 C88.4773333,31.3186667 88.1026667,31.0773333 87.668,30.912 C87.2333333,30.7466667 86.7573333,30.664 86.24,30.664 C85.6266667,30.664 85.076,30.7706667 84.588,30.984 C84.1,31.1973333 83.6866667,31.4866667 83.348,31.852 C83.0093333,32.2173333 82.7493333,32.6466667 82.568,33.14 C82.3866667,33.6333333 82.296,34.16 82.296,34.72 C82.296,35.44 82.4,36.0733333 82.608,36.62 C82.816,37.1666667 83.1013333,37.6253333 83.464,37.996 C83.8266667,38.3666667 84.2533333,38.6466667 84.744,38.836 C85.2346667,39.0253333 85.7653333,39.12 86.336,39.12 Z M88.016,33.952 L84.304,33.952 C84.3946667,33.3546667 84.6026667,32.8933333 84.928,32.568 C85.2533333,32.2426667 85.704,32.08 86.28,32.08 C86.5733333,32.08 86.8293333,32.1293333 87.048,32.228 C87.2666667,32.3266667 87.448,32.4613333 87.592,32.632 C87.736,32.8026667 87.8426667,33.0013333 87.912,33.228 C87.9813333,33.4546667 88.016,33.696 88.016,33.952 L88.016,33.952 Z M97.52,39.128 C98.16,39.128 98.728,39.0306667 99.224,38.836 C99.72,38.6413333 100.14,38.3746667 100.484,38.036 C100.828,37.6973333 101.089333,37.3 101.268,36.844 C101.446667,36.388 101.536,35.8986667 101.536,35.376 C101.536,34.896 101.46,34.488 101.308,34.152 C101.156,33.816 100.954667,33.532 100.704,33.3 C100.453333,33.068 100.168,32.876 99.848,32.724 C99.528,32.572 99.2013333,32.4386667 98.868,32.324 C98.5346667,32.2093333 98.208,32.1013333 97.888,32 C97.568,31.8986667 97.2826667,31.784 97.032,31.656 C96.7813333,31.528 96.58,31.3733333 96.428,31.192 C96.276,31.0106667 96.2,30.784 96.2,30.512 C96.2,30.2986667 96.2373333,30.1026667 96.312,29.924 C96.3866667,29.7453333 96.5,29.592 96.652,29.464 C96.804,29.336 96.9906667,29.236 97.212,29.164 C97.4333333,29.092 97.6933333,29.056 97.992,29.056 C98.3226667,29.056 98.6093333,29.0973333 98.852,29.18 C99.0946667,29.2626667 99.3066667,29.3546667 99.488,29.456 C99.6693333,29.5573333 99.8266667,29.6493333 99.96,29.732 C100.093333,29.8146667 100.213333,29.856 100.32,29.856 C100.426667,29.856 100.518667,29.832 100.596,29.784 C100.673333,29.736 100.741333,29.6533333 100.8,29.536 L100.8,29.536 L101.328,28.52 C100.922667,28.136 100.432,27.8373333 99.856,27.624 C99.28,27.4106667 98.6506667,27.304 97.968,27.304 C97.3653333,27.304 96.8293333,27.3973333 96.36,27.584 C95.8906667,27.7706667 95.4946667,28.0186667 95.172,28.328 C94.8493333,28.6373333 94.604,28.992 94.436,29.392 C94.268,29.792 94.184,30.2026667 94.184,30.624 C94.184,31.152 94.26,31.596 94.412,31.956 C94.564,32.316 94.7653333,32.616 95.016,32.856 C95.2666667,33.096 95.552,33.2906667 95.872,33.44 C96.192,33.5893333 96.5173333,33.7173333 96.848,33.824 C97.1786667,33.9306667 97.504,34.0293333 97.824,34.12 C98.144,34.2106667 98.4293333,34.3213333 98.68,34.452 C98.9306667,34.5826667 99.132,34.744 99.284,34.936 C99.436,35.128 99.512,35.376 99.512,35.68 C99.512,36.224 99.344,36.6413333 99.008,36.932 C98.672,37.2226667 98.1973333,37.368 97.584,37.368 C97.184,37.368 96.8413333,37.3133333 96.556,37.204 C96.2706667,37.0946667 96.0226667,36.9733333 95.812,36.84 C95.6013333,36.7066667 95.4186667,36.5853333 95.264,36.476 C95.1093333,36.3666667 94.9653333,36.312 94.832,36.312 C94.7306667,36.312 94.6386667,36.3373333 94.556,36.388 C94.4733333,36.4386667 94.4026667,36.5013333 94.344,36.576 L94.344,36.576 L93.72,37.608 C93.944,37.8373333 94.1986667,38.0453333 94.484,38.232 C94.7693333,38.4186667 95.076,38.5786667 95.404,38.712 C95.732,38.8453333 96.0746667,38.948 96.432,39.02 C96.7893333,39.092 97.152,39.128 97.52,39.128 Z M105.768,39.128 C106.168,39.128 106.554667,39.0666667 106.928,38.944 C107.301333,38.8213333 107.632,38.64 107.92,38.4 L107.92,38.4 L107.328,37.44 C107.285333,37.3813333 107.245333,37.3373333 107.208,37.308 C107.170667,37.2786667 107.122667,37.264 107.064,37.264 C107.016,37.264 106.968,37.2786667 106.92,37.308 C106.872,37.3373333 106.817333,37.368 106.756,37.4 C106.694667,37.432 106.622667,37.4626667 106.54,37.492 C106.457333,37.5213333 106.354667,37.536 106.232,37.536 C106.018667,37.536 105.848,37.464 105.72,37.32 C105.592,37.176 105.528,36.976 105.528,36.72 L105.528,36.72 L105.528,32.272 L107.688,32.272 L107.688,30.864 L105.528,30.864 L105.528,28.28 L104.504,28.28 C104.386667,28.28 104.289333,28.3093333 104.212,28.368 C104.134667,28.4266667 104.085333,28.5093333 104.064,28.616 L104.064,28.616 L103.648,30.856 L102.328,31.072 L102.328,31.856 C102.328,31.9946667 102.366667,32.0986667 102.444,32.168 C102.521333,32.2373333 102.613333,32.272 102.72,32.272 L102.72,32.272 L103.552,32.272 L103.552,36.856 C103.552,37.5653333 103.744,38.1213333 104.128,38.524 C104.512,38.9266667 105.058667,39.128 105.768,39.128 Z M112.768,39.12 C113.381333,39.12 113.937333,39.0213333 114.436,38.824 C114.934667,38.6266667 115.36,38.344 115.712,37.976 C116.064,37.608 116.336,37.1626667 116.528,36.64 C116.72,36.1173333 116.816,35.5306667 116.816,34.88 C116.816,34.2346667 116.72,33.6506667 116.528,33.128 C116.336,32.6053333 116.064,32.1626667 115.712,31.8 C115.36,31.4373333 114.934667,31.1573333 114.436,30.96 C113.937333,30.7626667 113.381333,30.664 112.768,30.664 C112.154667,30.664 111.597333,30.7626667 111.096,30.96 C110.594667,31.1573333 110.166667,31.4373333 109.812,31.8 C109.457333,32.1626667 109.182667,32.6053333 108.988,33.128 C108.793333,33.6506667 108.696,34.2346667 108.696,34.88 C108.696,35.5306667 108.793333,36.1173333 108.988,36.64 C109.182667,37.1626667 109.457333,37.608 109.812,37.976 C110.166667,38.344 110.594667,38.6266667 111.096,38.824 C111.597333,39.0213333 112.154667,39.12 112.768,39.12 Z M112.768,37.6 C112.074667,37.6 111.562667,37.3693333 111.232,36.908 C110.901333,36.4466667 110.736,35.776 110.736,34.896 C110.736,34.016 110.901333,33.3426667 111.232,32.876 C111.562667,32.4093333 112.074667,32.176 112.768,32.176 C113.450667,32.176 113.956,32.408 114.284,32.872 C114.612,33.336 114.776,34.0106667 114.776,34.896 C114.776,35.7813333 114.612,36.4533333 114.284,36.912 C113.956,37.3706667 113.450667,37.6 112.768,37.6 Z M120.336,39 L120.336,33.888 C120.538667,33.4506667 120.786667,33.1186667 121.08,32.892 C121.373333,32.6653333 121.725333,32.552 122.136,32.552 C122.365333,32.552 122.549333,32.5706667 122.688,32.608 C122.826667,32.6453333 122.936,32.664 123.016,32.664 C123.106667,32.664 123.178667,32.644 123.232,32.604 C123.285333,32.564 123.32,32.496 123.336,32.4 L123.336,32.4 L123.592,30.92 C123.325333,30.7333333 122.989333,30.64 122.584,30.64 C122.093333,30.64 121.650667,30.7866667 121.256,31.08 C120.861333,31.3733333 120.517333,31.7733333 120.224,32.28 L120.224,32.28 L120.104,31.288 C120.077333,31.1066667 120.024,30.9786667 119.944,30.904 C119.864,30.8293333 119.722667,30.792 119.52,30.792 L119.52,30.792 L118.36,30.792 L118.36,39 L120.336,39 Z M128.384,39.12 C128.672,39.12 128.969333,39.0986667 129.276,39.056 C129.582667,39.0133333 129.884,38.94 130.18,38.836 C130.476,38.732 130.76,38.5933333 131.032,38.42 C131.304,38.2466667 131.549333,38.032 131.768,37.776 L131.768,37.776 L131.192,37.056 C131.149333,36.9973333 131.098667,36.952 131.04,36.92 C130.981333,36.888 130.912,36.872 130.832,36.872 C130.709333,36.872 130.582667,36.9093333 130.452,36.984 C130.321333,37.0586667 130.169333,37.1413333 129.996,37.232 C129.822667,37.3226667 129.62,37.4053333 129.388,37.48 C129.156,37.5546667 128.88,37.592 128.56,37.592 C127.909333,37.592 127.386667,37.3946667 126.992,37 C126.597333,36.6053333 126.370667,35.9866667 126.312,35.144 L126.312,35.144 L131.384,35.144 C131.474667,35.144 131.549333,35.132 131.608,35.108 C131.666667,35.084 131.713333,35.044 131.748,34.988 C131.782667,34.932 131.806667,34.8546667 131.82,34.756 C131.833333,34.6573333 131.84,34.5333333 131.84,34.384 C131.84,33.792 131.752,33.2653333 131.576,32.804 C131.4,32.3426667 131.154667,31.9533333 130.84,31.636 C130.525333,31.3186667 130.150667,31.0773333 129.716,30.912 C129.281333,30.7466667 128.805333,30.664 128.288,30.664 C127.674667,30.664 127.124,30.7706667 126.636,30.984 C126.148,31.1973333 125.734667,31.4866667 125.396,31.852 C125.057333,32.2173333 124.797333,32.6466667 124.616,33.14 C124.434667,33.6333333 124.344,34.16 124.344,34.72 C124.344,35.44 124.448,36.0733333 124.656,36.62 C124.864,37.1666667 125.149333,37.6253333 125.512,37.996 C125.874667,38.3666667 126.301333,38.6466667 126.792,38.836 C127.282667,39.0253333 127.813333,39.12 128.384,39.12 Z M130.064,33.952 L126.352,33.952 C126.442667,33.3546667 126.650667,32.8933333 126.976,32.568 C127.301333,32.2426667 127.752,32.08 128.328,32.08 C128.621333,32.08 128.877333,32.1293333 129.096,32.228 C129.314667,32.3266667 129.496,32.4613333 129.64,32.632 C129.784,32.8026667 129.890667,33.0013333 129.96,33.228 C130.029333,33.4546667 130.064,33.696 130.064,33.952 L130.064,33.952 Z" id="AppleStore" fill="#06262D" fill-rule="nonzero"></path>
        </g>
    </g>
</svg>