<?xml version="1.0" encoding="UTF-8"?>
<svg width="24px" height="24px" viewBox="0 0 24 24" version="1.1" xmlns="http://www.w3.org/2000/svg" xmlns:xlink="http://www.w3.org/1999/xlink">
    <!-- Generator: Sketch 63.1 (92452) - https://sketch.com -->
    <title>Group</title>
    <desc>Created with Sketch.</desc>
    <g id="Website-Notification" stroke="none" stroke-width="1" fill="none" fill-rule="evenodd">
        <g id="Desktop-web-my-tickets-view-tickets-Copy-3" transform="translate(-466.000000, -255.000000)">
            <g id="Group" transform="translate(466.000000, 255.000000)">
                <circle id="Oval-Copy-11" fill="#0461A9" cx="12" cy="12" r="12"></circle>
                <path d="M10.8333333,11.5 L10.8333333,9.83333333 L17.2916667,9.83333333 C17.4305556,9.83333333 17.5,9.76388889 17.5,9.625 L17.5,9.625 L17.5,8.375 C17.5,8.23611111 17.4305556,8.16666667 17.2916667,8.16666667 L17.2916667,8.16666667 L10.8333333,8.16666667 L10.8333333,6.5 L7.5,9 L10.8333333,11.5 Z M14.1666667,16.5 L17.5,14 L14.1666667,11.5 L14.1666667,13.1666667 L7.70833333,13.1666667 C7.56944444,13.1666667 7.5,13.2361111 7.5,13.375 L7.5,13.375 L7.5,14.625 C7.5,14.7638889 7.56944444,14.8333333 7.70833333,14.8333333 L7.70833333,14.8333333 L14.1666667,14.8333333 L14.1666667,16.5 Z" id="-copy-4" fill="#FFFFFF" fill-rule="nonzero" transform="translate(12.000000, 12.000000) rotate(-270.000000) translate(-12.000000, -12.000000) "></path>
            </g>
        </g>
    </g>
</svg>