<?xml version="1.0" encoding="utf-8"?>
<!-- Generator: Adobe Illustrator 24.0.1, SVG Export Plug-In . SVG Version: 6.00 Build 0)  -->
<svg version="1.1" xmlns="http://www.w3.org/2000/svg" xmlns:xlink="http://www.w3.org/1999/xlink" x="0px" y="0px"
	 viewBox="0 0 695 115" style="enable-background:new 0 0 695 115;" xml:space="preserve">
<style type="text/css">
	.Arched_x0020_Green{fill:url(#SVGID_1_);stroke:#FFFFFF;stroke-width:0.25;stroke-miterlimit:1;}
	.st0{fill:#FFFFFF;}
	.st1{fill:#EB2030;}
	.st2{fill:#0461A9;}
</style>
<linearGradient id="SVGID_1_" gradientUnits="userSpaceOnUse" x1="-71" y1="279" x2="-70.2929" y2="278.2929">
	<stop  offset="0" style="stop-color:#20AB4B"/>
	<stop  offset="0.9831" style="stop-color:#1D361D"/>
</linearGradient>
<g id="Layer_1">
	<g>
		<g>
			<path class="st0" d="M113.89,7.98c5.34,0,11.21,0.17,17.28,0.64c0,0,13.81,1.01,25.24,3.73l0.74,0.15
				c21.94,4.92,29.55,11.2,34.49,14.33c4.92,3.13,14.92,13.29,11.2,25.23h-30.61c0,0,0.13-0.18,0.32-0.5l-9.45,0.1
				c-0.1,0.13-0.18,0.26-0.28,0.4h-33.3c0,0,9.53-7.19,3.74-14.48c-7.68-9.66-22.55-10.49-27.4-10.49c-0.99,0-1.57,0.03-1.57,0.03
				s-11.63,0.43-18.36,4.33c-2.84,1.64-6.57,3.58-8.66,6.57c0,0-2.99,4.03-2.99,7.62c0,4.31,2.63,7.67,2.63,7.67
				c5.6,7.28,12.99,9.29,12.99,9.29c5.96,2.05,11.26,2.34,13.76,2.34c0.98,0,1.53-0.04,1.53-0.04h93.91l-3.74,13.88h-0.73
				l-1.79,5.37h0.58l-4.92,18.81h-69.43c0,0-3.31,0.19-8.58,0.19c-11.3,0-31.6-0.89-47.4-6.46c0,0-18.96-5.37-31.21-14.78
				c0,0-10.89-8.21-14.18-18.66c0,0-4.18-10.9,2.09-20.6c0,0,5.67-8.66,14.33-14.78c0,0,16.72-13.59,53.6-18.51
				C87.72,9.37,98.73,7.98,113.89,7.98 M113.89,5.98c-15.1,0-26.3,1.39-26.41,1.4c-36.33,4.85-53.27,17.88-54.55,18.9
				c-8.84,6.26-14.56,14.92-14.8,15.28c-6.56,10.16-2.7,21.31-2.31,22.35c3.46,10.91,14.4,19.26,14.87,19.61
				c12.17,9.34,30.39,14.68,31.8,15.09c16.21,5.7,37.04,6.56,48.01,6.56c4.94,0,8.15-0.17,8.64-0.19h69.37
				c0.91,0,1.7-0.61,1.93-1.49l4.92-18.81c0.12-0.46,0.07-0.94-0.13-1.36l0.89-2.67c0.56-0.23,1.01-0.71,1.17-1.33l3.74-13.88
				c0.16-0.6,0.03-1.24-0.34-1.74c-0.38-0.49-0.97-0.78-1.59-0.78h-93.91c-0.05,0-0.11,0-0.16,0.01c0,0-0.5,0.04-1.37,0.04
				c-2.48,0-7.47-0.29-13.11-2.23c-0.04-0.01-0.08-0.03-0.12-0.04c-0.06-0.02-6.84-1.97-11.93-8.59c-0.03-0.04-2.22-2.91-2.22-6.45
				c0-2.4,1.87-5.45,2.6-6.42c0.01-0.01,0.02-0.03,0.03-0.04c1.63-2.32,4.56-4,7.16-5.49c0.3-0.17,0.59-0.34,0.87-0.5
				c6.23-3.61,17.32-4.06,17.43-4.06c0.05,0,0.58-0.03,1.49-0.03c4.24,0,18.65,0.7,25.83,9.73c1.13,1.43,1.59,2.89,1.39,4.46
				c-0.49,3.86-4.72,7.15-4.77,7.18c-0.69,0.52-0.97,1.42-0.69,2.23c0.27,0.82,1.04,1.37,1.9,1.37h33.3c0.44,0,0.86-0.15,1.21-0.41
				l6.9-0.08c0.35,0.3,0.81,0.48,1.3,0.48h30.61c0.88,0,1.65-0.57,1.91-1.4c4.24-13.58-7.25-24.47-12.03-27.51
				c-0.54-0.34-1.1-0.72-1.72-1.13c-5.06-3.37-13.53-9.01-33.41-13.47l-0.75-0.15c-11.44-2.73-24.95-3.73-25.52-3.78
				C125.75,6.2,119.88,5.98,113.89,5.98L113.89,5.98z"/>
		</g>
		<g>
			<path class="st0" d="M196.67,72.67l-6.73,20.2l-20.2,9.54l-52.75-2.81l-79.12-17.4l-4.49-31.43l20.76-28.05
				c0,0,38.71-14.03,63.97-11.79c25.25,2.25,71.82,11.22,74.63,40.4l-51.07,0.56l-5.61-26.37c0,0-36.93-4.74-51.07,0.56
				c-4.48,1.68-21.58,10.07-14.03,25.81c6.74,14.03,51.63,21.32,51.63,21.32l31.42-6.73l26.94-0.56L196.67,72.67z"/>
			<path class="st1" d="M74.29,45.65c0-3.58,2.99-7.62,2.99-7.62c2.09-2.98,5.82-4.93,8.66-6.57c6.73-3.9,18.36-4.33,18.36-4.33
				s19.7-1.2,28.96,10.45c5.79,7.29-3.74,14.48-3.74,14.48h33.3c4.32-5.67,3.43-10.15,1.64-14.04c-1.79-3.88-8.06-8.81-12.54-11.05
				c-4.48-2.24-8.21-4.03-17.32-6.12c-9.11-2.09-19.56-2.84-30.61-2.84c-11.04,0-25.08,3.88-25.08,3.88
				c-11.35,3.13-17.65,8.18-22.24,12.24c-3.89,3.44-7.02,9.17-7.02,14.04c0,3.43,0.89,5.97,1.64,7.46c0.52,1.04,2.54,5.67,9.56,10.6
				c7.02,4.92,14.19,7.31,14.19,7.31s7.79,3.06,15.22,4.18c4.9,0.74,14.33,1.04,14.33,1.04h41.8l13.59-11.35h4.03l1.49,11.35h29.86
				l3.74-13.88h-93.91c0,0-7,0.56-15.29-2.3c0,0-7.39-2.02-12.99-9.29C76.92,53.32,74.29,49.96,74.29,45.65z"/>
			<path class="st2" d="M157.15,12.51c21.94,4.92,29.55,11.2,34.49,14.33c4.92,3.13,14.92,13.29,11.2,25.23h-30.61
				c0,0,2.23-2.99,2.39-7.76c0.1-3.14-1.05-8.66-8.96-14.78c-6.39-4.94-25.09-15.27-60.46-14.78
				c-32.26,0.45-47.18,11.64-49.27,12.99c-2.09,1.35-14.78,8.96-14.78,21.95c0,0-0.33,3.08,2.09,8.06
				c2.69,5.53,9.26,12.09,14.78,15.08c6.69,3.62,11.2,6.42,26.43,9.26c15.23,2.83,29.26,2.09,29.26,2.09h14.78l7.61,2.99
				l-13.89,11.2l3.88,1.34l22.1-7.02l15.23,6.72l4.03-0.3l-1.35-12.24l9.86-2.69h17.47l-4.92,18.81h-69.43c0,0-32.81,1.9-55.98-6.27
				c0,0-18.96-5.37-31.21-14.78c0,0-10.89-8.21-14.18-18.66c0,0-4.18-10.9,2.09-20.6c0,0,5.67-8.66,14.33-14.78
				c0,0,16.72-13.59,53.6-18.51c0,0,20.15-2.54,43.44-0.75c0,0,13.81,1.01,25.24,3.73L157.15,12.51z"/>
		</g>
	</g>
</g>
<g id="Layer_2">
	<g>
		<g>
			<path class="st1" d="M249.71,89.21c-9.73,0-17.99-3.41-22.67-9.35c-4.21-5.35-5.38-12.51-3.39-20.7
				c4.95-20.4,24.3-29.69,40.17-29.69c10.6,0,19.56,1.99,25.91,5.76c0.36,0.21,0.48,0.67,0.28,1.03l-9.37,17.12
				c-0.14,0.25-0.4,0.4-0.68,0.4c-0.1,0-0.2-0.02-0.3-0.06l-1.24-0.52c-0.32-0.13-0.51-0.46-0.47-0.79
				c0.51-4.73,0.37-11.2-3.17-15.13c-2.1-2.34-5.21-3.53-9.24-3.53c-13.72,0-21.3,16.2-23.62,25.77
				c-1.71,7.02-2.08,16.36,1.99,21.54c2.02,2.58,5,3.88,8.85,3.88c13.59,0,20.31-9.79,23.54-18c0.08-0.21,0.26-0.38,0.48-0.45
				l1.3-0.42c0.08-0.03,0.16-0.04,0.24-0.04c0.16,0,0.31,0.05,0.44,0.14c0.2,0.14,0.32,0.36,0.33,0.61l0.52,14.81
				c0.01,0.31-0.17,0.6-0.45,0.73C270.09,86.45,261.61,89.21,249.71,89.21z"/>
			<path class="st0" d="M263.82,30.24c10.62,0,19.45,2.05,25.52,5.65l-9.37,17.12l-1.24-0.52c1.09-10.19-1.61-19.52-13.17-19.52
				c-13.79,0-21.82,15.84-24.37,26.36c-2.56,10.53-2.2,26.37,11.59,26.37c11.65,0,19.81-7.19,24.26-18.49l1.3-0.42l0.52,14.81
				c-9.73,4.45-17.93,6.84-29.14,6.84c-16.53,0-29.94-10.02-25.31-29.1C229.03,40.25,247.29,30.24,263.82,30.24 M263.82,28.69
				c-8.86,0-17.75,2.72-25.04,7.66c-8.14,5.52-13.63,13.34-15.88,22.62c-2.05,8.43-0.82,15.82,3.54,21.36
				c4.82,6.13,13.3,9.65,23.27,9.65c12.04,0,20.62-2.79,29.78-6.98c0.57-0.26,0.92-0.83,0.9-1.46l-0.52-14.81
				c-0.02-0.48-0.26-0.93-0.66-1.21c-0.26-0.18-0.57-0.28-0.88-0.28c-0.16,0-0.32,0.03-0.48,0.08l-1.3,0.42
				c-0.44,0.14-0.79,0.47-0.96,0.9c-3.15,7.99-9.67,17.52-22.83,17.52c-3.6,0-6.37-1.21-8.24-3.59c-3.9-4.96-3.51-14.04-1.85-20.88
				c2.27-9.35,9.63-25.18,22.87-25.18c3.8,0,6.71,1.1,8.67,3.27c3.35,3.72,3.46,9.96,2.97,14.54c-0.07,0.68,0.31,1.33,0.94,1.59
				l1.24,0.52c0.19,0.08,0.39,0.12,0.59,0.12c0.55,0,1.08-0.29,1.35-0.8l9.37-17.12c0.4-0.73,0.15-1.64-0.57-2.07
				C283.66,30.72,274.56,28.69,263.82,28.69L263.82,28.69z"/>
		</g>
		<g>
			<path class="st1" d="M304.95,88.79c-7.61,0-14.15-2.78-17.96-7.61c-3.51-4.47-4.53-10.3-2.94-16.88
				c3.34-13.76,17.23-24.13,32.32-24.13c7.61,0,14.16,2.78,17.97,7.62c3.51,4.47,4.53,10.3,2.93,16.87
				C333.93,78.42,320.04,88.79,304.95,88.79z M315.7,44.45c-10.67,0-15.3,16.84-16.12,20.21c-0.71,2.95-2.76,12.95,0.88,17.57
				c1.2,1.53,2.89,2.27,5.15,2.27c10.65,0,15.29-16.84,16.12-20.21c0.71-2.95,2.76-12.95-0.88-17.57
				C319.65,45.19,317.97,44.45,315.7,44.45z"/>
			<path class="st0" d="M316.37,40.94c13.69,0,23.66,9.07,20.16,23.54c-3.51,14.46-17.87,23.54-31.57,23.54
				c-13.7,0-23.65-9.08-20.15-23.54C288.31,50.01,302.67,40.94,316.37,40.94 M305.62,85.28c9.84,0,15.07-13.44,16.87-20.8
				c1.78-7.37,3.06-20.8-6.78-20.8c-9.85,0-15.08,13.43-16.87,20.8C297.06,71.84,295.77,85.28,305.62,85.28 M316.37,39.4
				c-7.2,0-14.48,2.35-20.5,6.63c-6.37,4.52-10.84,10.95-12.57,18.09c-1.65,6.81-0.58,12.88,3.08,17.54
				c3.95,5.03,10.72,7.91,18.57,7.91c7.2,0,14.48-2.35,20.5-6.63c6.37-4.53,10.84-10.95,12.57-18.09
				c1.65-6.81,0.59-12.88-3.08-17.53C330.99,42.28,324.22,39.4,316.37,39.4L316.37,39.4z M305.62,83.74c-2.01,0-3.5-0.65-4.54-1.98
				c-2.72-3.46-2.16-11.01-0.73-16.92c0.8-3.28,5.28-19.62,15.37-19.62c2.01,0,3.5,0.65,4.55,1.98c2.72,3.46,2.16,11.01,0.73,16.92
				C320.19,67.39,315.69,83.74,305.62,83.74L305.62,83.74z"/>
		</g>
		<g>
			<path class="st1" d="M351.1,88.79c-3.82,0-10.73-0.65-14.13-4.97c-1.88-2.39-2.38-5.51-1.47-9.25
				c2.88-11.92,19.18-16.17,33.47-16.17h1.28l0.76-3.17c0.87-3.6,0.54-6.62-0.95-8.51c-1.18-1.5-3.02-2.27-5.47-2.27
				c-6.37,0.07-12.38,5.12-16.91,14.21c-0.1,0.2-0.28,0.35-0.5,0.4l-1.37,0.34c-0.06,0.02-0.13,0.02-0.19,0.02
				c-0.17,0-0.33-0.05-0.47-0.16c-0.19-0.14-0.3-0.36-0.3-0.6l-0.32-13.52c-0.01-0.35,0.22-0.67,0.56-0.76l0.69-0.19
				c7.46-2.08,14.51-4.05,21.57-4.05c0.42,0,0.84,0.01,1.26,0.02c0,0,0,0,0,0c6.74,0,11.28,1.59,13.85,4.86
				c2.67,3.39,3.14,8.44,1.45,15.43l-4.16,17.12c-1.31,5.49,0.59,6.69,2.13,7.12c0.4,0.11,0.64,0.52,0.54,0.92l-0.31,1.29
				c-0.08,0.35-0.39,0.59-0.75,0.59h-14.48c-0.42,0-0.76-0.34-0.77-0.75l-0.11-5.18C361.25,86.55,356.59,88.79,351.1,88.79z
				 M368.74,62.68c-9.22,0-15.88,4.77-17.82,12.76c-0.63,2.62-0.31,5.08,0.87,6.58c0.85,1.08,2.09,1.62,3.69,1.62
				c6.88,0,10.93-9.1,12.24-14.47l1.57-6.49H368.74z"/>
			<path class="st0" d="M367.37,40.92c0.41,0,0.82,0.01,1.23,0.02c11.56,0,18.12,4.71,14.58,19.34l-4.16,17.12
				c-0.92,3.86-0.69,7.11,2.68,8.05l-0.31,1.29h-14.48l-0.15-7.11c-4.5,5.13-9.32,8.39-15.66,8.39c-8.73,0-17.27-3.25-14.84-13.27
				c2.94-12.15,20.47-15.58,32.72-15.58h1.89l0.9-3.77c1.68-6.93-0.92-11.72-7.17-11.72c-7.21,0.08-13.25,5.91-17.6,14.64
				l-1.37,0.34l-0.32-13.52C352.88,43.02,360.2,40.92,367.37,40.92 M355.49,84.42c7.45,0,11.62-9.41,12.99-15.06l1.8-7.45h-1.54
				c-8.3,0-16.28,3.93-18.57,13.35C349.07,79.8,350.61,84.42,355.49,84.42 M367.37,39.38c-7.16,0-14.26,1.98-21.78,4.08l-0.69,0.19
				c-0.68,0.19-1.14,0.82-1.13,1.52l0.32,13.52c0.01,0.47,0.23,0.91,0.61,1.19c0.27,0.21,0.6,0.32,0.93,0.32
				c0.13,0,0.25-0.02,0.38-0.05l1.37-0.34c0.44-0.11,0.8-0.41,1.01-0.81c4.39-8.82,10.16-13.71,16.23-13.78
				c2.18,0,3.82,0.66,4.85,1.97c1.33,1.7,1.62,4.48,0.8,7.84l-0.62,2.59h-0.67c-14.58,0-31.23,4.4-34.22,16.76
				c-0.97,3.99-0.43,7.32,1.61,9.91c2.67,3.39,7.9,5.26,14.73,5.26c5.21,0,9.7-1.93,14.19-6.18l0.07,3.38
				c0.02,0.84,0.7,1.51,1.54,1.51h14.48c0.71,0,1.34-0.49,1.5-1.19l0.31-1.29c0.19-0.81-0.29-1.62-1.09-1.84
				c-0.86-0.24-2.88-0.8-1.59-6.2l4.16-17.11c1.75-7.24,1.23-12.5-1.59-16.09c-2.73-3.46-7.45-5.15-14.46-5.16
				C368.21,39.38,367.79,39.38,367.37,39.38L367.37,39.38z M355.49,82.88c-1.35,0-2.39-0.45-3.09-1.33
				c-1.04-1.32-1.31-3.53-0.73-5.92c1.82-7.5,8.03-12.02,16.65-12.17L366.98,69C365.72,74.15,361.89,82.88,355.49,82.88
				L355.49,82.88z"/>
		</g>
		<g>
			<path class="st1" d="M406.59,88.79c-6.99,0-12.79-2.48-16.33-6.98c-3.55-4.52-4.54-10.57-2.86-17.51
				c3.56-14.66,16.08-24.13,31.89-24.13c6.13,0,12.09,1.77,18.74,5.58c0.36,0.21,0.5,0.67,0.3,1.04l-7.44,13.78
				c-0.14,0.26-0.4,0.41-0.68,0.41c-0.08,0-0.17-0.01-0.25-0.04l-1.27-0.43c-0.38-0.13-0.59-0.52-0.5-0.9
				c1.16-5.01,0.57-9.61-1.57-12.3c-1.5-1.89-3.73-2.85-6.62-2.85c-8.96,0-14.79,10.89-17.06,20.21
				c-1.21,4.99-1.99,11.78,1.15,15.76c1.68,2.14,4.37,3.22,8,3.22c5.96,0,12.46-4.32,16.16-10.74c0.13-0.22,0.36-0.37,0.61-0.38
				c0.02,0,0.04,0,0.06,0c0.23,0,0.46,0.11,0.6,0.29l1.83,2.31c0.21,0.26,0.22,0.63,0.04,0.91
				C425.57,84.74,417.69,88.79,406.59,88.79z"/>
			<path class="st0" d="M419.29,40.94c6.93,0,12.95,2.39,18.36,5.48l-7.44,13.78l-1.27-0.43c1.8-7.79-0.21-16.09-8.94-16.09
				c-10.27,0-15.91,13.01-17.81,20.8c-2.44,10.1-1.32,19.94,9.9,19.94c6.76,0,13.28-4.96,16.83-11.13l1.83,2.31
				c-6.18,9.24-14.48,12.41-24.16,12.41c-13.36,0-21.89-9.33-18.44-23.54C391.75,49.67,404.47,40.94,419.29,40.94 M419.29,39.4
				c-16.18,0-28.99,9.7-32.64,24.72c-1.71,7.07-0.65,13.52,3.01,18.17c3.69,4.69,9.7,7.28,16.93,7.28c11.23,0,19.55-4.28,25.45-13.1
				c0.37-0.56,0.34-1.29-0.07-1.82l-1.83-2.31c-0.29-0.37-0.74-0.58-1.21-0.58c-0.04,0-0.08,0-0.11,0
				c-0.51,0.04-0.97,0.33-1.22,0.77c-3.57,6.19-9.79,10.36-15.49,10.36c-3.38,0-5.86-0.99-7.39-2.93c-2.3-2.92-2.66-8.29-1.01-15.11
				c0.49-2.01,5.1-19.62,16.31-19.62c2.64,0,4.67,0.86,6.02,2.56c1.99,2.51,2.53,6.86,1.42,11.64c-0.18,0.77,0.26,1.55,1.01,1.81
				l1.27,0.43c0.16,0.06,0.33,0.08,0.49,0.08c0.55,0,1.08-0.3,1.36-0.81l7.44-13.78c0.4-0.74,0.14-1.66-0.59-2.07
				C431.64,41.2,425.56,39.4,419.29,39.4L419.29,39.4z"/>
		</g>
		<g>
			<path class="st1" d="M481.23,87.85c-2.03,0-4.15-0.09-6.2-0.18c-1.99-0.08-3.87-0.17-5.62-0.17c-1.69,0-3.49,0.08-5.41,0.16
				c-2.01,0.09-4.1,0.18-6.14,0.18c-0.24,0-0.46-0.11-0.61-0.3c-0.15-0.19-0.2-0.43-0.14-0.66l0.32-1.28
				c0.08-0.31,0.34-0.55,0.66-0.58c3.03-0.34,5.37-2.75,6.25-6.44l4.9-20.2c1.15-4.76,0.98-8.4-0.49-10.27
				c-0.86-1.09-2.15-1.62-3.96-1.62c-6.5,0-10.79,5.73-13.91,18.58l-1.83,7.53c-1.86,7.73-1.25,11.45,2.07,12.43
				c0.39,0.12,0.63,0.52,0.53,0.92l-0.32,1.28c-0.08,0.34-0.39,0.59-0.75,0.59c-2.04,0-4.1-0.09-6.09-0.17
				c-1.94-0.08-3.95-0.17-5.89-0.17c-1.95,0-4,0.09-5.99,0.17c-2.03,0.09-4.14,0.17-6.18,0.17c-0.24,0-0.46-0.11-0.61-0.3
				c-0.15-0.19-0.2-0.43-0.14-0.66l0.32-1.28c0.07-0.27,0.28-0.49,0.55-0.56c4.05-1.05,6.59-4.88,8.5-12.79l9.01-37.15
				c0.46-1.87,0.44-3.12-0.05-3.91c-0.44-0.7-1.32-1.18-2.79-1.5c-0.2-0.04-0.38-0.17-0.49-0.35s-0.14-0.39-0.09-0.59l0.31-1.28
				c0.08-0.32,0.35-0.55,0.67-0.58c5.68-0.57,11.77-1.57,18.1-2.99c0.06-0.01,0.11-0.02,0.17-0.02c0.21,0,0.4,0.08,0.55,0.23
				c0.19,0.19,0.26,0.46,0.2,0.72l-5.56,22.9c4.49-5.16,9.7-7.58,16.18-7.58c4.67,0,8.49,1.59,10.77,4.49
				c2.32,2.94,2.94,6.96,1.82,11.62l-5.5,22.68c-0.47,1.94-0.4,3.35,0.21,4.32c0.55,0.87,1.58,1.44,3.14,1.76
				c0.21,0.04,0.38,0.17,0.5,0.34c0.11,0.18,0.15,0.39,0.1,0.6l-0.32,1.28C481.89,87.61,481.58,87.85,481.23,87.85z"/>
			<path class="st0" d="M459.89,24.67l-6.27,25.85l-0.04,0.17h0.16c4.66-6.5,10.16-9.75,17.52-9.75c9.08,0,14.03,6.07,11.83,15.15
				l-5.5,22.68c-0.98,4.02,0.2,6.26,3.95,7.02l-0.32,1.28c-3.94,0-8.22-0.34-11.82-0.34c-3.51,0-7.61,0.34-11.55,0.34l0.32-1.28
				c3.07-0.35,5.88-2.74,6.92-7.02l4.9-20.2c1.35-5.57,1.66-12.84-5.2-12.84c-7.86,0-11.9,7.79-14.66,19.17l-1.83,7.53
				c-1.71,7.11-1.71,12.07,2.59,13.35l-0.32,1.28c-4.03,0-8.05-0.34-11.98-0.34c-3.95,0-8.14,0.34-12.17,0.34l0.32-1.28
				c4.94-1.28,7.34-6.25,9.06-13.35l9.01-37.15c0.94-3.85,0.07-5.57-3.43-6.34l0.31-1.28C447.65,27.07,453.73,26.04,459.89,24.67
				 M459.89,23.13c-0.11,0-0.22,0.01-0.34,0.04c-6.3,1.41-12.36,2.41-18.01,2.97c-0.65,0.07-1.19,0.53-1.34,1.17l-0.31,1.28
				c-0.1,0.4-0.03,0.83,0.19,1.18c0.22,0.35,0.57,0.6,0.98,0.69c1.23,0.27,1.99,0.65,2.3,1.16c0.37,0.59,0.36,1.68-0.04,3.31
				l-9.01,37.15c-1.84,7.6-4.21,11.25-7.95,12.23c-0.55,0.14-0.97,0.57-1.11,1.12l-0.32,1.28c-0.11,0.46-0.01,0.95,0.28,1.32
				c0.29,0.37,0.74,0.59,1.21,0.59c2.06,0,4.17-0.09,6.21-0.17c1.98-0.08,4.02-0.17,5.96-0.17c1.92,0,3.92,0.09,5.86,0.17
				c2,0.09,4.07,0.17,6.13,0.17c0.71,0,1.33-0.48,1.5-1.17l0.32-1.28c0.2-0.8-0.27-1.61-1.06-1.85c-1.99-0.59-3.73-2.42-1.54-11.51
				l1.83-7.53c3.02-12.44,7.08-17.99,13.16-17.99c1.55,0,2.65,0.43,3.35,1.32c1.32,1.68,1.44,5.09,0.35,9.61l-4.9,20.2
				c-0.81,3.36-2.9,5.55-5.59,5.85c-0.64,0.07-1.17,0.54-1.32,1.16l-0.32,1.28c-0.11,0.46-0.01,0.95,0.28,1.32
				c0.29,0.37,0.74,0.59,1.21,0.59c2.06,0,4.15-0.09,6.18-0.18c1.91-0.08,3.71-0.16,5.38-0.16c1.73,0,3.6,0.08,5.59,0.16
				c2.06,0.09,4.19,0.18,6.24,0.18c0.71,0,1.33-0.48,1.5-1.17l0.32-1.28c0.1-0.41,0.03-0.84-0.19-1.19
				c-0.22-0.35-0.58-0.6-0.99-0.69c-1.35-0.28-2.21-0.74-2.64-1.42c-0.49-0.77-0.53-2.03-0.12-3.73l5.5-22.68
				c1.18-4.9,0.51-9.14-1.96-12.28c-2.42-3.08-6.46-4.78-11.37-4.78c-5.78,0-10.57,1.85-14.76,5.76l4.88-20.13
				c0.13-0.52-0.02-1.06-0.4-1.44C460.69,23.29,460.29,23.13,459.89,23.13L459.89,23.13z"/>
		</g>
		<g>
			<path class="st2" d="M522.26,89.21c-9.65,0-17.18-2.52-20.64-6.92c-2.26-2.87-2.88-6.47-1.85-10.72l7.09-29.19
				c1.08-4.45,1.25-6.68,0.57-7.69c-0.33-0.49-0.94-0.78-1.98-0.94c-0.21-0.03-0.4-0.15-0.52-0.33c-0.12-0.18-0.16-0.4-0.11-0.61
				l0.33-1.37c0.08-0.35,0.39-0.59,0.75-0.59c2.26,0,4.52,0.09,6.7,0.18c2.1,0.09,4.08,0.17,5.98,0.17c1.91,0,4.06-0.08,6.33-0.17
				c2.33-0.09,4.73-0.18,6.93-0.18c0.24,0,0.46,0.11,0.61,0.29c0.15,0.19,0.2,0.43,0.15,0.66l-0.33,1.37
				c-0.07,0.31-0.33,0.55-0.65,0.59c-4.11,0.53-6.86,3.56-8.19,9l-6.09,25.17c-1.39,5.72-1.04,10.13,1.01,12.73
				c1.62,2.06,4.36,3.1,8.13,3.1c12.82,0,19.42-5.66,22.79-19.53l3.43-14.13c1.01-4.15,1.76-9.84-0.38-13.31
				c-0.95-1.54-2.35-2.5-4.29-2.96c-0.2-0.05-0.38-0.17-0.48-0.35c-0.11-0.18-0.14-0.39-0.09-0.59l0.36-1.46
				c0.09-0.34,0.39-0.59,0.75-0.59c2.43,0,4.72,0.1,6.74,0.2c1.7,0.08,3.3,0.15,4.73,0.15c1.57,0,3.31-0.09,4.99-0.18
				c1.67-0.09,3.39-0.17,4.94-0.17c0.24,0,0.46,0.11,0.61,0.29c0.15,0.19,0.2,0.43,0.15,0.66l-0.33,1.37
				c-0.07,0.28-0.28,0.49-0.55,0.57c-6.6,1.78-11.08,10.98-12.47,16.73l-3.59,14.81C549.79,81.6,539.79,89.21,522.26,89.21z"/>
			<path class="st0" d="M569.93,31.6l-0.33,1.37c-6.97,1.88-11.54,11.22-13.02,17.29L553,65.08c-3.94,16.26-14.06,23.37-30.74,23.37
				c-12.08,0-24.79-4.1-21.74-16.69l7.09-29.19c1.74-7.19,1.26-9.07-2.04-9.58l0.33-1.37c4.38,0,8.74,0.35,12.68,0.35
				c3.93,0,8.99-0.35,13.26-0.35l-0.33,1.37c-3.98,0.52-7.3,3.25-8.84,9.58l-6.09,25.17c-2.37,9.76-0.13,16.78,9.89,16.78
				c14.21,0,20.34-6.93,23.54-20.11l3.43-14.13c1.47-6.07,2.45-15.41-5.25-17.21l0.36-1.46c4.45,0,8.31,0.35,11.47,0.35
				S566.85,31.6,569.93,31.6 M569.93,30.06c-1.57,0-3.3,0.09-4.98,0.18c-1.67,0.09-3.39,0.17-4.95,0.17c-1.41,0-3.01-0.07-4.7-0.15
				c-2.03-0.09-4.32-0.2-6.77-0.2c-0.71,0-1.33,0.48-1.5,1.17l-0.36,1.46c-0.1,0.4-0.03,0.82,0.18,1.18c0.22,0.35,0.56,0.6,0.97,0.7
				c1.73,0.4,2.98,1.26,3.81,2.61c1.59,2.57,1.69,6.98,0.29,12.73l-3.43,14.13c-3.31,13.63-9.49,18.94-22.04,18.94
				c-3.53,0-6.06-0.95-7.53-2.81c-1.9-2.41-2.19-6.58-0.86-12.07l6.09-25.17c1.24-5.1,3.78-7.93,7.54-8.42
				c0.64-0.08,1.15-0.55,1.3-1.17l0.33-1.37c0.11-0.46,0-0.94-0.29-1.31s-0.74-0.59-1.21-0.59c-2.21,0-4.63,0.09-6.96,0.18
				c-2.26,0.09-4.4,0.17-6.3,0.17c-1.89,0-3.86-0.08-5.95-0.17c-2.19-0.09-4.46-0.18-6.73-0.18c-0.71,0-1.34,0.49-1.5,1.19
				l-0.33,1.37c-0.1,0.42-0.02,0.86,0.22,1.22c0.24,0.36,0.62,0.6,1.04,0.66c1.05,0.16,1.33,0.43,1.46,0.61
				c0.77,1.15-0.28,5.46-0.67,7.08l-7.09,29.19c-1.09,4.49-0.42,8.32,1.99,11.38c4.94,6.28,15.43,7.22,21.25,7.22
				c17.69,0,28.24-8.03,32.24-24.55l3.59-14.81c1.35-5.57,5.64-14.47,11.92-16.17c0.55-0.15,0.97-0.58,1.1-1.13l0.33-1.37
				c0.11-0.46,0-0.94-0.29-1.31S570.41,30.06,569.93,30.06L569.93,30.06z"/>
		</g>
		<g>
			<path class="st2" d="M578.42,89.21c-10.6,0-19.57-1.9-25.95-5.49c-0.37-0.21-0.5-0.67-0.3-1.04l8.56-15.92
				c0.14-0.26,0.4-0.41,0.68-0.41c0.11,0,0.21,0.02,0.31,0.07l1.17,0.52c0.3,0.14,0.49,0.45,0.45,0.78
				c-0.47,4.81,0.96,9.45,3.94,12.73c2.66,2.94,6.24,4.49,10.35,4.49c3.27,0,14.12-0.75,16.47-10.37c0.59-2.21,0.55-3.67-0.14-4.77
				c-1.45-2.34-6.21-3.66-15.07-5.42c-6.8-1.33-11.83-3-14.28-6.83c-1.7-2.65-2-6.09-0.92-10.54c3.14-12.93,18.19-17.54,31.23-17.54
				c7.87,0,15.24,2.06,21.15,3.71c0.23,0.06,0.41,0.23,0.5,0.44c0.09,0.22,0.08,0.46-0.03,0.67l-7.98,14.9
				c-0.14,0.26-0.4,0.41-0.68,0.41c-0.1,0-0.2-0.02-0.3-0.06l-1-0.42c-0.3-0.13-0.49-0.43-0.47-0.76c0.28-4.35-0.98-8.36-3.48-11.02
				c-2.19-2.34-5.23-3.57-8.81-3.57c-5.21,0-11.89,2.47-13.58,9.43c-0.42,1.74-0.37,2.85,0.18,3.71c1.12,1.77,4.59,3.08,12.38,4.68
				c7.82,1.61,14.52,3.3,17.36,7.79c1.57,2.48,1.86,5.64,0.89,9.67C607.47,83.84,589.58,89.21,578.42,89.21z"/>
			<path class="st0" d="M594.93,30.24c7.46,0,14.21,1.8,20.94,3.68l-7.98,14.9l-1-0.42c0.53-8.22-4.15-15.41-13.05-15.41
				c-6.25,0-12.68,3.25-14.33,10.02c-1.18,4.88,0.68,6.76,13.15,9.33c12.48,2.57,20.39,5.22,17.65,16.52
				c-3.36,13.87-20.25,19.6-31.89,19.6c-8.99,0-18.42-1.37-25.57-5.39l8.56-15.92l1.17,0.52c-0.92,9.41,5.21,18.06,15.05,18.06
				c6.93,0,15.2-2.66,17.22-10.96c1.78-6.67-1.59-8.3-15.8-11.13c-10.06-1.97-17.42-4.79-14.6-16.43
				C567.71,33.74,584.23,30.24,594.93,30.24 M594.93,28.69c-13.33,0-28.74,4.76-31.98,18.13c-1.13,4.66-0.8,8.31,1.02,11.14
				c2.6,4.06,7.79,5.8,14.78,7.17c8.44,1.68,13.26,2.99,14.56,5.07c0.56,0.9,0.57,2.18,0.05,4.15c-2.22,9.11-12.6,9.82-15.73,9.82
				c-3.88,0-7.26-1.46-9.77-4.23c-2.83-3.12-4.19-7.54-3.74-12.13c0.06-0.66-0.3-1.29-0.91-1.56l-1.17-0.52
				c-0.2-0.09-0.42-0.13-0.63-0.13c-0.55,0-1.08,0.3-1.36,0.81l-8.56,15.92c-0.4,0.74-0.13,1.66,0.6,2.07
				c6.49,3.66,15.6,5.59,26.33,5.59c11.4,0,29.69-5.53,33.39-20.78c1.03-4.24,0.71-7.6-0.98-10.26c-3.01-4.75-9.87-6.49-17.86-8.14
				c-7.36-1.52-10.92-2.81-11.89-4.34c-0.42-0.67-0.45-1.6-0.08-3.11c1.59-6.52,7.9-8.84,12.83-8.84c3.35,0,6.21,1.15,8.24,3.33
				c2.35,2.5,3.54,6.31,3.27,10.44c-0.04,0.65,0.33,1.26,0.94,1.52l1,0.42c0.2,0.08,0.4,0.12,0.6,0.12c0.55,0,1.08-0.3,1.36-0.81
				l7.98-14.9c0.22-0.41,0.24-0.9,0.06-1.33c-0.18-0.43-0.55-0.75-1-0.88C610.33,30.77,602.91,28.69,594.93,28.69L594.93,28.69z"/>
		</g>
		<g>
			<path class="st2" d="M668.14,87.85c-2.41,0-5.01-0.09-7.53-0.18c-2.47-0.09-4.81-0.17-6.93-0.17c-2.07,0-4.27,0.08-6.61,0.16
				c-2.44,0.09-4.96,0.18-7.44,0.18c-0.24,0-0.46-0.11-0.61-0.29s-0.2-0.43-0.14-0.66l0.42-1.71c0.07-0.29,0.3-0.51,0.59-0.57
				l0.18-0.04c2.71-0.57,4.21-0.88,4.87-3.58c0.39-1.62,0.06-4.58-0.89-7.91l-2.09-7.48h-17.18l-4.64,6.36
				c-2.11,3.19-3.3,5.41-3.62,6.74c-0.39,1.61-0.3,2.84,0.28,3.76c0.64,1.02,1.94,1.73,3.96,2.15c0.2,0.04,0.38,0.17,0.49,0.34
				s0.15,0.39,0.1,0.59l-0.41,1.71c-0.08,0.35-0.39,0.59-0.75,0.59c-1.82,0-3.72-0.09-5.57-0.18c-1.77-0.08-3.44-0.16-4.96-0.16
				c-1.53,0-3.16,0.08-4.88,0.16c-1.8,0.09-3.66,0.18-5.47,0.18c-0.24,0-0.46-0.11-0.61-0.29c-0.15-0.19-0.2-0.43-0.14-0.66
				l0.37-1.54c0.07-0.29,0.31-0.52,0.6-0.58c2.33-0.45,8.75-4.98,15.15-13.24l29.87-38.77c2.26-3.05,2.87-3.3,3.39-3.3h0.18
				c1.39,0,2.27,3.19,2.44,3.84l12.13,41.75c2.13,7.15,3.91,8.86,6.1,9.3c0.21,0.04,0.38,0.17,0.5,0.34c0.11,0.18,0.15,0.39,0.1,0.6
				l-0.48,1.97C668.81,87.6,668.5,87.85,668.14,87.85z M640.88,61.14l-3.37-12.96l-9.52,12.96H640.88z"/>
			<path class="st0" d="M648.11,30.24c0.6,0,1.43,2.22,1.69,3.25l12.13,41.77c2.21,7.45,4.16,9.33,6.69,9.84l-0.48,1.97
				c-4.7,0-10.11-0.34-14.46-0.34c-4.28,0-9.26,0.34-14.05,0.34l0.42-1.71c2.88-0.6,4.85-0.95,5.64-4.19
				c0.48-1.97-0.02-5.22-0.89-8.31l-2.24-8.04h-18.16l-4.87,6.68c-1.75,2.65-3.34,5.3-3.75,7.02c-1.04,4.28,1.18,6.08,4.84,6.85
				l-0.41,1.71c-3.51,0-7.37-0.34-10.53-0.34c-3.17,0-6.85,0.34-10.36,0.34l0.37-1.54c2.61-0.51,9.12-5.14,15.61-13.53l29.87-38.78
				c0.76-1.02,2.27-3,2.78-3H648.11 M626.47,61.91h15.41l-4.03-15.49L626.47,61.91 M648.11,28.69h-0.18c-0.92,0-1.72,0.52-4.01,3.62
				l-29.85,38.75c-6.88,8.89-12.96,12.62-14.68,12.95c-0.59,0.12-1.06,0.57-1.2,1.15l-0.37,1.54c-0.11,0.46,0,0.94,0.29,1.32
				c0.29,0.37,0.74,0.59,1.21,0.59c1.84,0,3.7-0.09,5.51-0.18c1.72-0.08,3.34-0.16,4.85-0.16c1.5,0,3.17,0.08,4.92,0.16
				c1.85,0.09,3.77,0.18,5.61,0.18c0.71,0,1.34-0.49,1.5-1.19l0.41-1.71c0.1-0.4,0.02-0.83-0.2-1.18c-0.22-0.35-0.58-0.6-0.98-0.68
				c-1.81-0.38-2.94-0.97-3.47-1.81c-0.46-0.73-0.52-1.79-0.19-3.16c0.45-1.85,2.74-5.32,3.52-6.5l4.39-6.01h16.21l1.93,6.92
				c0.92,3.22,1.24,6.03,0.88,7.53c-0.52,2.13-1.38,2.4-4.28,3.01l-0.18,0.04c-0.58,0.12-1.04,0.57-1.18,1.15l-0.42,1.71
				c-0.11,0.46-0.01,0.95,0.29,1.32c0.29,0.37,0.74,0.59,1.21,0.59c2.49,0,5.02-0.09,7.47-0.18c2.33-0.08,4.52-0.16,6.58-0.16
				c2.11,0,4.44,0.08,6.91,0.17c2.52,0.09,5.13,0.18,7.56,0.18c0.71,0,1.33-0.49,1.5-1.18l0.48-1.97c0.1-0.41,0.03-0.84-0.2-1.19
				c-0.23-0.35-0.58-0.6-1-0.68c-1.57-0.32-3.28-1.26-5.52-8.77l-12.12-41.74C650.77,31.08,649.81,28.69,648.11,28.69L648.11,28.69z
				 M629.52,60.37l7.66-10.42l2.71,10.42H629.52L629.52,60.37z"/>
		</g>
		<g>
			<path class="st2" d="M665.27,44.07c-4.9,0-8.74-3.79-8.74-8.63c0-4.82,3.84-8.59,8.74-8.59c4.87,0,8.69,3.77,8.69,8.59
				C673.96,40.28,670.14,44.07,665.27,44.07z M662.96,40.75c0.7,0.31,1.48,0.47,2.31,0.47c0.82,0,1.59-0.17,2.29-0.47
				c-0.27,0-0.51-0.14-0.65-0.37l-2.15-3.55h-0.38v3.15c0,0.43-0.35,0.77-0.77,0.77H662.96z M661.47,31.14
				c-1.13,1.04-1.82,2.56-1.82,4.31c0,1.76,0.69,3.29,1.82,4.33V31.14z M669.54,39.24c0.82-1,1.3-2.31,1.3-3.79
				c0-3.28-2.39-5.75-5.57-5.75c-0.83,0-1.61,0.17-2.31,0.47h2.73c3.28,0,3.96,1.82,3.96,3.34c0,1.43-0.67,2.46-1.89,2.96
				L669.54,39.24z M665.24,34.13c1.43,0,1.43-0.2,1.43-0.7c0-0.22,0-0.56-1.2-0.56h-1.09v1.26H665.24z"/>
			<path class="st0" d="M665.27,27.62c4.27,0,7.92,3.32,7.92,7.82c0,4.54-3.65,7.86-7.92,7.86c-4.31,0-7.96-3.32-7.96-7.86
				C657.3,30.94,660.96,27.62,665.27,27.62 M665.27,42c3.54,0,6.34-2.78,6.34-6.55c0-3.72-2.79-6.52-6.34-6.52
				c-3.59,0-6.39,2.8-6.39,6.52C658.88,39.21,661.68,42,665.27,42 M665.68,30.94c2.12,0,3.19,0.79,3.19,2.57
				c0,1.61-1.02,2.32-2.34,2.48l2.57,3.98h-1.54l-2.38-3.92h-1.58v3.92h-1.36v-9.04H665.68 M663.6,34.9h1.64
				c1.17,0,2.2-0.08,2.2-1.47c0-1.12-1.01-1.33-1.97-1.33h-1.86V34.9 M665.27,26.08c-5.33,0-9.51,4.11-9.51,9.36
				c0,5.27,4.18,9.4,9.51,9.4c5.31,0,9.46-4.13,9.46-9.4C674.73,30.19,670.57,26.08,665.27,26.08L665.27,26.08z M660.7,37.18
				c-0.18-0.54-0.28-1.12-0.28-1.74c0-0.61,0.1-1.19,0.28-1.72V37.18L660.7,37.18z M668.86,36.76c0.53-0.37,0.94-0.86,1.2-1.45
				c0,0.05,0,0.1,0,0.14c0,0.87-0.19,1.67-0.53,2.36L668.86,36.76L668.86,36.76z M665.07,40.45c0.05-0.15,0.07-0.31,0.07-0.47v-1.01
				l0.87,1.43c-0.24,0.04-0.49,0.05-0.75,0.05C665.2,40.45,665.14,40.45,665.07,40.45L665.07,40.45z"/>
		</g>
	</g>
</g>
</svg>
