<svg xmlns="http://www.w3.org/2000/svg" width="80" height="30" viewBox="0 0 160.287 81.39"><defs><style>.a{fill:#ec1b2e;}.b{fill:#0060a8;}</style></defs><path class="a" d="M312.925,231.41a13.313,13.313,0,0,1,2.63-6.381,21.7,21.7,0,0,1,7.508-5.632,41,41,0,0,1,15.772-3.756s16.9-1.127,24.767,9.011c4.882,6.006-3,12.39-3,12.39h28.536a10.474,10.474,0,0,0,1.505-12.013,25.622,25.622,0,0,0-10.515-9.388,69.492,69.492,0,0,0-14.644-5.259,154.211,154.211,0,0,0-26.287-2.252,95.9,95.9,0,0,0-21.4,3.379,48.253,48.253,0,0,0-19.138,10.511,17.712,17.712,0,0,0-6.006,12.018,12.619,12.619,0,0,0,1.5,6.383,21.275,21.275,0,0,0,8.254,9.011,75.162,75.162,0,0,0,12.018,6.384,76.025,76.025,0,0,0,13.142,3.754,96.721,96.721,0,0,0,12.39.75H375.63l11.64-9.76h3.379l1.149,9.76h25.51l3.007-12.013H339.209a38.039,38.039,0,0,1-13.142-1.879,23.854,23.854,0,0,1-11.263-7.886,18.792,18.792,0,0,1-1.879-7.133Z" transform="translate(-263.656 -199.353)"/><path class="b" d="M241.623,159.861a84.582,84.582,0,0,1,29.345,12.225c4.132,2.63,12.768,11.267,9.765,21.778H254.446a13.115,13.115,0,0,0,2.252-6.758c0-2.629-.75-7.511-7.508-12.769-5.256-4.131-21.4-13.14-51.821-12.767-27.411.392-40.176,9.765-42.066,11.267s-12.757,7.508-12.757,18.774a13.853,13.853,0,0,0,1.875,6.758,34.7,34.7,0,0,0,12.769,12.769,60.312,60.312,0,0,0,22.533,7.886,110.891,110.891,0,0,0,25.159,1.879h12.765l6.4,2.625-12.013,9.765,3.379,1.125,18.774-6.008,12.371,6.381,3.379-.394-1.123-10.491,8.254-2.254h15.017l-4.127,15.769H208.636s-28.162,1.5-47.688-5.254a89.086,89.086,0,0,1-26.66-12.768,38,38,0,0,1-12.017-15.769,20.327,20.327,0,0,1,1.879-17.651,64.6,64.6,0,0,1,12.017-12.772s14.267-11.643,45.822-15.772a205.039,205.039,0,0,1,37.177-.75c7.131.75,14.265,1.5,21.778,3Z" transform="translate(-121.067 -156.174)"/></svg>