<?xml version="1.0" encoding="UTF-8"?>
<svg width="18px" height="24px" viewBox="0 0 18 24" version="1.1" xmlns="http://www.w3.org/2000/svg" xmlns:xlink="http://www.w3.org/1999/xlink">
    <title>Delete Copy 4</title>
    <g id="Website-Notification" stroke="none" stroke-width="1" fill="none" fill-rule="evenodd">
        <g id="Mobile-web-my-alert-details" transform="translate(-339.000000, -801.000000)" fill="#279CF7" fill-rule="nonzero">
            <path d="M352.4375,825 C352.9375,825 353.364583,824.822917 353.71875,824.46875 C354.072917,824.114583 354.25,823.6875 354.25,823.1875 L354.25,823.1875 L355.75,805 L357,805 L357,804.0625 L352,804.0625 L352,802.8125 C352,802.3125 351.822917,801.885417 351.46875,801.53125 C351.114583,801.177083 350.6875,801 350.1875,801 L350.1875,801 L345.8125,801 C345.3125,801 344.885417,801.177083 344.53125,801.53125 C344.177083,801.885417 344,802.3125 344,802.8125 L344,802.8125 L344,804.0625 L339,804.0625 L339,805 L340.3125,805 L341.8125,823.1875 C341.8125,823.6875 341.989583,824.114583 342.34375,824.46875 C342.697917,824.822917 343.125,825 343.625,825 L343.625,825 L352.4375,825 Z M351.0625,804.0625 L344.9375,804.0625 L344.9375,802.8125 C344.9375,802.229167 345.229167,801.9375 345.8125,801.9375 L345.8125,801.9375 L350.1875,801.9375 C350.770833,801.9375 351.0625,802.229167 351.0625,802.8125 L351.0625,802.8125 L351.0625,804.0625 Z M352.4375,824.0625 L343.625,824.0625 C343,824.0625 342.6875,823.770833 342.6875,823.1875 L342.6875,823.1875 L342.6875,823.125 L341.25,805 L354.8125,805 L353.375,823.125 L353.375,823.1875 C353.375,823.770833 353.0625,824.0625 352.4375,824.0625 L352.4375,824.0625 Z M348.4375,822.0625 L348.4375,807 L347.5625,807 L347.5625,822.0625 L348.4375,822.0625 Z M351.3125,822.0625 L352,807 L351.0625,807 L350.4375,822.0625 L351.3125,822.0625 Z M345.5625,822.0625 L344.875,807 L344,807 L344.6875,822.0625 L345.5625,822.0625 Z" id="Delete-Copy-4"></path>
        </g>
    </g>
</svg>