<?xml version="1.0" encoding="UTF-8"?>
<svg width="85px" height="85px" viewBox="0 0 85 85" version="1.1" xmlns="http://www.w3.org/2000/svg" xmlns:xlink="http://www.w3.org/1999/xlink">
    <!-- Generator: Sketch 63.1 (92452) - https://sketch.com -->
    <title>Group</title>
    <desc>Created with Sketch.</desc>
    <g id="Website-Notification" stroke="none" stroke-width="1" fill="none" fill-rule="evenodd">
        <g id="Desktop-web-my-tickets-view-tickets-Copy-18" transform="translate(-598.000000, -320.000000)">
            <g id="Group-8" transform="translate(390.000000, 258.000000)">
                <g id="Group-3" transform="translate(208.000000, 62.000000)">
                    <g id="Group-2">
                        <g id="Group">
                            <circle id="Oval" stroke="#279CF7" stroke-width="2" fill="#E9F5FE" cx="42.5" cy="42.5" r="41.5"></circle>
                            <path d="M48.9166667,59 C49.5833333,59 50.1527778,58.7638889 50.625,58.2916667 C51.0972222,57.8194444 51.3333333,57.25 51.3333333,56.5833333 L51.3333333,56.5833333 L53.3333333,32.3333333 L55,32.3333333 L55,31.0833333 L48.3333333,31.0833333 L48.3333333,29.4166667 C48.3333333,28.75 48.0972222,28.1805556 47.625,27.7083333 C47.1527778,27.2361111 46.5833333,27 45.9166667,27 L45.9166667,27 L40.0833333,27 C39.4166667,27 38.8472222,27.2361111 38.375,27.7083333 C37.9027778,28.1805556 37.6666667,28.75 37.6666667,29.4166667 L37.6666667,29.4166667 L37.6666667,31.0833333 L31,31.0833333 L31,32.3333333 L32.75,32.3333333 L34.75,56.5833333 C34.75,57.25 34.9861111,57.8194444 35.4583333,58.2916667 C35.9305556,58.7638889 36.5,59 37.1666667,59 L37.1666667,59 L48.9166667,59 Z M47.0833333,31.0833333 L38.9166667,31.0833333 L38.9166667,29.4166667 C38.9166667,28.6388889 39.3055556,28.25 40.0833333,28.25 L40.0833333,28.25 L45.9166667,28.25 C46.6944444,28.25 47.0833333,28.6388889 47.0833333,29.4166667 L47.0833333,29.4166667 L47.0833333,31.0833333 Z M48.9166667,57.75 L37.1666667,57.75 C36.3333333,57.75 35.9166667,57.3611111 35.9166667,56.5833333 L35.9166667,56.5833333 L35.9166667,56.5 L34,32.3333333 L52.0833333,32.3333333 L50.1666667,56.5 L50.1666667,56.5833333 C50.1666667,57.3611111 49.75,57.75 48.9166667,57.75 L48.9166667,57.75 Z M43.5833333,55.0833333 L43.5833333,35 L42.4166667,35 L42.4166667,55.0833333 L43.5833333,55.0833333 Z M47.4166667,55.0833333 L48.3333333,35 L47.0833333,35 L46.25,55.0833333 L47.4166667,55.0833333 Z M39.75,55.0833333 L38.8333333,35 L37.6666667,35 L38.5833333,55.0833333 L39.75,55.0833333 Z" id="Delete-Copy-5" fill="#279CF7" fill-rule="nonzero"></path>
                        </g>
                    </g>
                </g>
            </g>
        </g>
    </g>
</svg>