<?xml version="1.0" encoding="UTF-8"?>
<svg width="85px" height="85px" viewBox="0 0 85 85" version="1.1" xmlns="http://www.w3.org/2000/svg" xmlns:xlink="http://www.w3.org/1999/xlink">
    <title>download</title>
    <g id="Website-Notification" stroke="none" stroke-width="1" fill="none" fill-rule="evenodd">
        <g id="Download-pop-up-website-Copy-3" transform="translate(-598.000000, -298.000000)">
            <g id="Group-8" transform="translate(390.000000, 258.000000)">
                <g id="Group" transform="translate(208.000000, 40.000000)">
                    <circle id="Oval" stroke="#279CF7" stroke-width="2" fill="#E9F5FE" cx="42.5" cy="42.5" r="41.5"></circle>
                    <path d="M31.53125,55.15625 C31.8958333,55.15625 32.1953125,55.0325521 32.4296875,54.7851562 C32.6640625,54.5377604 32.78125,54.2447917 32.78125,53.90625 C32.78125,53.5677083 32.6640625,53.2747396 32.4296875,53.0273438 C32.1953125,52.7799479 31.8958333,52.65625 31.53125,52.65625 L30.4375,52.65625 C28.8229167,52.65625 27.4231771,52.0052083 26.2382812,50.703125 C25.0533854,49.4010417 24.4609375,47.8645833 24.4609375,46.09375 C24.4609375,44.53125 24.9427083,43.125 25.90625,41.875 C26.8697917,40.625 28.0416667,39.8828125 29.421875,39.6484375 L30.5546875,39.453125 L30.4765625,38.28125 L30.4375,38.28125 C30.4375,36.7708333 30.6783854,35.3580729 31.1601562,34.0429688 C31.6419271,32.7278646 32.3320312,31.5950521 33.2304688,30.6445312 C34.1289062,29.6940104 35.203125,28.9518229 36.453125,28.4179688 C37.703125,27.8841146 39.109375,27.6171875 40.671875,27.6171875 C43.1458333,27.6171875 45.1054688,28.1966146 46.5507812,29.3554688 C47.9960938,30.5143229 49.0442708,32.1354167 49.6953125,34.21875 L49.96875,35.078125 L50.8671875,35.1171875 C52.0390625,35.1171875 53.1458333,35.3450521 54.1875,35.8007812 C55.2291667,36.2565104 56.1536458,36.8684896 56.9609375,37.6367188 C57.7682292,38.4049479 58.40625,39.3033854 58.875,40.3320312 C59.34375,41.3606771 59.578125,42.4609375 59.578125,43.6328125 C59.578125,44.7005208 59.4088542,45.7682292 59.0703125,46.8359375 C58.7317708,47.9036458 58.25,48.8736979 57.625,49.7460938 C57,50.6184896 56.2513021,51.3216146 55.3789062,51.8554688 C54.5065104,52.3893229 53.5364583,52.65625 52.46875,52.65625 L52.1171875,52.65625 C51.7786458,52.65625 51.4856771,52.7799479 51.2382812,53.0273438 C50.9908854,53.2747396 50.8671875,53.5677083 50.8671875,53.90625 C50.8671875,54.2447917 50.9908854,54.5377604 51.2382812,54.7851562 C51.4503348,54.9972098 51.6958705,55.1183833 51.9748884,55.1486767 L52.1171875,55.15625 C53.6796875,55.1041667 55.0729167,54.7265625 56.296875,54.0234375 C57.5208333,53.3203125 58.5559896,52.4283854 59.4023438,51.3476562 C60.2486979,50.2669271 60.8932292,49.0494792 61.3359375,47.6953125 C61.7786458,46.3411458 62,44.9869792 62,43.6328125 C62,42.2005208 61.7330729,40.8528646 61.1992188,39.5898438 C60.6653646,38.3268229 59.9361979,37.2070312 59.0117188,36.2304688 C58.0872396,35.2539062 57.0065104,34.453125 55.7695312,33.828125 C54.5325521,33.203125 53.2109375,32.8125 51.8046875,32.65625 C51.3619792,31.5104167 50.8020833,30.46875 50.125,29.53125 C49.4479167,28.59375 48.640625,27.7994792 47.703125,27.1484375 C46.765625,26.4973958 45.7109375,25.9960938 44.5390625,25.6445312 C43.3671875,25.2929688 42.078125,25.1171875 40.671875,25.1171875 C38.8489583,25.1171875 37.1888021,25.4296875 35.6914062,26.0546875 C34.1940104,26.6796875 32.8919271,27.5455729 31.7851562,28.6523438 C30.6783854,29.7591146 29.7929688,31.0611979 29.1289062,32.5585938 C28.4648438,34.0559896 28.0807292,35.6770833 27.9765625,37.421875 C26.2317708,37.96875 24.7994792,39.0494792 23.6796875,40.6640625 C22.5598958,42.2786458 22,44.0885417 22,46.09375 C22,47.3177083 22.2278646,48.4765625 22.6835938,49.5703125 C23.1393229,50.6640625 23.7513021,51.6276042 24.5195312,52.4609375 C25.2877604,53.2942708 26.1796875,53.9518229 27.1953125,54.4335938 C28.2109375,54.9153646 29.2916667,55.15625 30.4375,55.15625 L31.53125,55.15625 Z M41.9609375,59.8828125 C42.0911458,59.8828125 42.2083333,59.8632812 42.3125,59.8242188 C42.4166667,59.7851562 42.5208333,59.7135417 42.625,59.609375 L42.9375,59.296875 L42.9375,59.296875 L42.9375,59.2578125 L42.9375,59.2578125 L47.546875,54.21875 C47.7291667,54.0364583 47.8203125,53.8411458 47.8203125,53.6328125 C47.8203125,53.4244792 47.7291667,53.2291667 47.546875,53.046875 L47.234375,52.7734375 C47.078125,52.5911458 46.8763021,52.5 46.6289062,52.5 C46.3815104,52.5 46.1666667,52.5911458 45.984375,52.7734375 L43.25,55.8203125 L43.25,43.2421875 C43.25,42.9036458 43.1263021,42.6106771 42.8789062,42.3632812 C42.6315104,42.1158854 42.3385417,41.9921875 42,41.9921875 C41.6354167,41.9921875 41.3359375,42.1158854 41.1015625,42.3632812 C40.8671875,42.6106771 40.75,42.9036458 40.75,43.2421875 L40.75,55.8203125 L38.09375,52.8515625 C37.9114583,52.6692708 37.6966146,52.5651042 37.4492188,52.5390625 C37.2018229,52.5130208 36.9869792,52.5911458 36.8046875,52.7734375 L36.4921875,52.96875 C36.3098958,53.1510417 36.21875,53.3723958 36.21875,53.6328125 C36.21875,53.8932292 36.3098958,54.1145833 36.4921875,54.296875 L41.0234375,59.2578125 L41.0234375,59.296875 L41.0234375,59.296875 L41.3359375,59.609375 C41.4140625,59.7135417 41.5117188,59.7851562 41.6289062,59.8242188 C41.7460938,59.8632812 41.8567708,59.8828125 41.9609375,59.8828125 Z" id="" fill="#279CF7" fill-rule="nonzero"></path>
                </g>
            </g>
        </g>
    </g>
</svg>