<?xml version="1.0" encoding="UTF-8"?>
<svg width="172px" height="66px" viewBox="0 0 172 66" version="1.1" xmlns="http://www.w3.org/2000/svg" xmlns:xlink="http://www.w3.org/1999/xlink">
    <title>Google</title>
    <defs>
        <rect id="path-1" x="0" y="0" width="156" height="50" rx="6"></rect>
        <filter x="-8.3%" y="-22.0%" width="116.7%" height="152.0%" filterUnits="objectBoundingBox" id="filter-2">
            <feOffset dx="0" dy="2" in="SourceAlpha" result="shadowOffsetOuter1"></feOffset>
            <feGaussianBlur stdDeviation="4" in="shadowOffsetOuter1" result="shadowBlurOuter1"></feGaussianBlur>
            <feColorMatrix values="0 0 0 0 0   0 0 0 0 0   0 0 0 0 0  0 0 0 0.1582441 0" type="matrix" in="shadowBlurOuter1"></feColorMatrix>
        </filter>
        <linearGradient x1="61.3230249%" y1="4.94673679%" x2="25.8327787%" y2="71.9326429%" id="linearGradient-3">
            <stop stop-color="#00A0FF" offset="0%"></stop>
            <stop stop-color="#00A1FF" offset="0.7%"></stop>
            <stop stop-color="#00BEFF" offset="26%"></stop>
            <stop stop-color="#00D2FF" offset="51.2%"></stop>
            <stop stop-color="#00DFFF" offset="76%"></stop>
            <stop stop-color="#00E3FF" offset="100%"></stop>
        </linearGradient>
        <linearGradient x1="107.594672%" y1="50.0071383%" x2="-130.515834%" y2="50.0071383%" id="linearGradient-4">
            <stop stop-color="#FFE000" offset="0%"></stop>
            <stop stop-color="#FFBD00" offset="40.9%"></stop>
            <stop stop-color="#FFA500" offset="77.5%"></stop>
            <stop stop-color="#FF9C00" offset="100%"></stop>
        </linearGradient>
        <linearGradient x1="86.245051%" y1="31.3900299%" x2="-50.1231709%" y2="133.81215%" id="linearGradient-5">
            <stop stop-color="#FF3A44" offset="0%"></stop>
            <stop stop-color="#C31162" offset="100%"></stop>
        </linearGradient>
        <linearGradient x1="-18.8049506%" y1="-10.2366944%" x2="42.0874672%" y2="35.47221%" id="linearGradient-6">
            <stop stop-color="#32A071" offset="0%"></stop>
            <stop stop-color="#2DA771" offset="6.9%"></stop>
            <stop stop-color="#15CF74" offset="47.6%"></stop>
            <stop stop-color="#06E775" offset="80.1%"></stop>
            <stop stop-color="#00F076" offset="100%"></stop>
        </linearGradient>
    </defs>
    <g id="-Redesign-Phase-1a" stroke="none" stroke-width="1" fill="none" fill-rule="evenodd">
        <g id="Google" transform="translate(8.000000, 6.000000)">
            <g id="Rectangle-Copy-105">
                <use fill="black" fill-opacity="1" filter="url(#filter-2)" xlink:href="#path-1"></use>
                <use fill="#FFFFFF" fill-rule="evenodd" xlink:href="#path-1"></use>
            </g>
            <g id="g1231" transform="translate(11.000000, 9.000000)">
                <path d="M0.591816426,0.506029247 C0.216004215,0.904727034 0,1.51837493 0,2.31577051 L0,30.6787844 C0,31.47618 0.216004215,32.0898279 0.60586548,32.4746579 L0.707721126,32.5595979 L16.8079377,16.6671574 L16.8079377,16.3100629 L0.693672072,0.421089283 L0.591816426,0.506029247 Z" id="path1192" fill="url(#linearGradient-3)"></path>
                <path d="M22.1641398,21.9854392 L16.7938887,16.6827586 L16.7938887,16.3117963 L22.1658959,11.0091158 L22.2818006,11.080188 L28.6354856,14.6441995 C30.4548381,15.6565452 30.4548381,17.324142 28.6354856,18.3503555 L22.2818006,21.914367 C22.2800445,21.914367 22.1641398,21.9854392 22.1641398,21.9854392 L22.1641398,21.9854392 Z" id="path1203" fill="url(#linearGradient-4)"></path>
                <path d="M22.2800445,21.914367 L16.7938887,16.4972775 L0.591816426,32.4902592 C1.18363285,33.1177748 2.1793596,33.188847 3.29274718,32.5751991 L22.2800445,21.914367" id="path1210" fill="url(#linearGradient-5)"></path>
                <path d="M22.2800445,11.0819214 L3.29274718,0.434957032 C2.18111573,-0.192558616 1.18363285,-0.107618653 0.591816426,0.519896996 L16.7921325,16.4972775 L22.2800445,11.0819214 Z" id="path1223" fill="url(#linearGradient-6)"></path>
                <path d="M22.1641398,21.799958 L3.30679623,32.3758502 C2.25311713,32.9738969 1.31358661,32.9322937 0.707721126,32.389718 L0.60586548,32.4902592 L0.707721126,32.5751991 C1.31358661,33.1160413 2.25311713,33.1593781 3.30679623,32.5613314 L22.2940935,21.914367 L22.1641398,21.799958 L22.1641398,21.799958 Z" id="path1225" fill="#000000" fill-rule="nonzero" opacity="0.2"></path>
                <path d="M28.6337294,18.1648743 L22.1500907,21.799958 L22.2659954,21.914367 L28.6196804,18.3503555 C29.5293567,17.8372487 29.9771703,17.1681298 29.9771703,16.4972775 C29.9192179,17.1109254 29.4573553,17.6951043 28.6337294,18.1648743 L28.6337294,18.1648743 Z" id="path1227" fill="#000000" fill-rule="nonzero" opacity="0.12"></path>
                <path d="M3.29274718,0.620438177 L28.6337294,14.8314141 C29.4573553,15.2873164 29.9192179,15.885363 29.9912193,16.4990109 C29.9912193,15.829892 29.5434057,15.1590397 28.6337294,14.645933 L3.29274718,0.434957032 C1.4733946,-0.591256404 0,0.263343637 0,2.31577051 L0,2.50125165 C0,0.448824782 1.4733946,-0.39190751 3.29274718,0.620438177 Z" id="path1229" fill="#FFFFFF" opacity="0.25"></path>
            </g>
            <path d="M52.794,19.096 C53.15,19.096 53.48,19.077 53.784,19.039 C54.088,19.001 54.373,18.943 54.639,18.865 C54.905,18.787 55.155,18.69 55.389,18.574 C55.623,18.458 55.848,18.322 56.064,18.166 L56.064,18.166 L56.064,14.866 L53.424,14.866 L53.424,15.526 C53.424,15.59 53.447,15.644 53.493,15.688 C53.539,15.732 53.6,15.754 53.676,15.754 L53.676,15.754 L55.008,15.754 L55.008,17.65 C54.856,17.73 54.704,17.801 54.552,17.863 C54.4,17.925 54.238,17.978 54.066,18.022 C53.894,18.066 53.711,18.099 53.517,18.121 C53.323,18.143 53.11,18.154 52.878,18.154 C52.414,18.154 51.99,18.076 51.606,17.92 C51.222,17.764 50.89,17.538 50.61,17.242 C50.33,16.946 50.113,16.585 49.959,16.159 C49.805,15.733 49.728,15.248 49.728,14.704 C49.728,14.184 49.802,13.715 49.95,13.297 C50.098,12.879 50.31,12.523 50.586,12.229 C50.862,11.935 51.196,11.709 51.588,11.551 C51.98,11.393 52.418,11.314 52.902,11.314 C53.234,11.314 53.521,11.34 53.763,11.392 C54.005,11.444 54.215,11.507 54.393,11.581 C54.571,11.655 54.722,11.732 54.846,11.812 C54.97,11.892 55.082,11.96 55.182,12.016 C55.258,12.06 55.328,12.082 55.392,12.082 C55.5,12.082 55.588,12.028 55.656,11.92 L55.656,11.92 L55.986,11.392 C55.802,11.224 55.604,11.073 55.392,10.939 C55.18,10.805 54.949,10.691 54.699,10.597 C54.449,10.503 54.178,10.431 53.886,10.381 C53.594,10.331 53.278,10.306 52.938,10.306 C52.266,10.306 51.659,10.412 51.117,10.624 C50.575,10.836 50.113,11.135 49.731,11.521 C49.349,11.907 49.055,12.37 48.849,12.91 C48.643,13.45 48.54,14.048 48.54,14.704 C48.54,15.352 48.645,15.946 48.855,16.486 C49.065,17.026 49.358,17.489 49.734,17.875 C50.11,18.261 50.558,18.561 51.078,18.775 C51.598,18.989 52.17,19.096 52.794,19.096 Z M60.15,19.084 C60.37,19.084 60.592,19.065 60.816,19.027 C61.04,18.989 61.257,18.932 61.467,18.856 C61.677,18.78 61.874,18.683 62.058,18.565 C62.242,18.447 62.4,18.308 62.532,18.148 L62.532,18.148 L62.232,17.758 C62.184,17.69 62.116,17.656 62.028,17.656 C61.96,17.656 61.879,17.687 61.785,17.749 C61.691,17.811 61.574,17.878 61.434,17.95 C61.294,18.022 61.127,18.089 60.933,18.151 C60.739,18.213 60.508,18.244 60.24,18.244 C59.952,18.244 59.692,18.197 59.46,18.103 C59.228,18.009 59.028,17.867 58.86,17.677 C58.692,17.487 58.56,17.25 58.464,16.966 C58.368,16.682 58.316,16.348 58.308,15.964 L58.308,15.964 L62.352,15.964 C62.452,15.964 62.52,15.936 62.556,15.88 C62.592,15.824 62.61,15.712 62.61,15.544 C62.61,15.112 62.547,14.727 62.421,14.389 C62.295,14.051 62.12,13.767 61.896,13.537 C61.672,13.307 61.406,13.131 61.098,13.009 C60.79,12.887 60.454,12.826 60.09,12.826 C59.65,12.826 59.254,12.903 58.902,13.057 C58.55,13.211 58.252,13.423 58.008,13.693 C57.764,13.963 57.577,14.282 57.447,14.65 C57.317,15.018 57.252,15.414 57.252,15.838 C57.252,16.362 57.324,16.826 57.468,17.23 C57.612,17.634 57.813,17.973 58.071,18.247 C58.329,18.521 58.635,18.729 58.989,18.871 C59.343,19.013 59.73,19.084 60.15,19.084 Z M61.65,15.298 L58.344,15.298 C58.416,14.77 58.6,14.357 58.896,14.059 C59.192,13.761 59.598,13.612 60.114,13.612 C60.358,13.612 60.575,13.653 60.765,13.735 C60.955,13.817 61.116,13.933 61.248,14.083 C61.38,14.233 61.48,14.411 61.548,14.617 C61.616,14.823 61.65,15.05 61.65,15.298 L61.65,15.298 Z M65.814,19.096 C66.09,19.096 66.358,19.047 66.618,18.949 C66.878,18.851 67.1,18.716 67.284,18.544 L67.284,18.544 L66.972,18.034 C66.928,17.966 66.878,17.932 66.822,17.932 C66.79,17.932 66.753,17.947 66.711,17.977 C66.669,18.007 66.618,18.04 66.558,18.076 C66.498,18.112 66.427,18.145 66.345,18.175 C66.263,18.205 66.166,18.22 66.054,18.22 C65.858,18.22 65.698,18.158 65.574,18.034 C65.45,17.91 65.388,17.72 65.388,17.464 L65.388,17.464 L65.388,13.816 L67.128,13.816 L67.128,13.042 L65.388,13.042 L65.388,10.948 L64.848,10.948 C64.78,10.948 64.724,10.967 64.68,11.005 C64.636,11.043 64.61,11.092 64.602,11.152 L64.602,11.152 L64.356,13.03 L63.36,13.156 L63.36,13.582 C63.36,13.662 63.382,13.721 63.426,13.759 C63.47,13.797 63.524,13.816 63.588,13.816 L63.588,13.816 L64.32,13.816 L64.32,17.536 C64.32,18.04 64.449,18.426 64.707,18.694 C64.965,18.962 65.334,19.096 65.814,19.096 Z M71.424,11.77 C71.528,11.77 71.626,11.75 71.718,11.71 C71.81,11.67 71.891,11.615 71.961,11.545 C72.031,11.475 72.087,11.395 72.129,11.305 C72.171,11.215 72.192,11.118 72.192,11.014 C72.192,10.91 72.171,10.811 72.129,10.717 C72.087,10.623 72.031,10.541 71.961,10.471 C71.891,10.401 71.81,10.346 71.718,10.306 C71.626,10.266 71.528,10.246 71.424,10.246 C71.32,10.246 71.223,10.266 71.133,10.306 C71.043,10.346 70.963,10.401 70.893,10.471 C70.823,10.541 70.768,10.623 70.728,10.717 C70.688,10.811 70.668,10.91 70.668,11.014 C70.668,11.118 70.688,11.215 70.728,11.305 C70.768,11.395 70.823,11.475 70.893,11.545 C70.963,11.615 71.043,11.67 71.133,11.71 C71.223,11.75 71.32,11.77 71.424,11.77 Z M71.952,19 L71.952,12.922 L70.884,12.922 L70.884,19 L71.952,19 Z M75.678,19.096 C75.954,19.096 76.222,19.047 76.482,18.949 C76.742,18.851 76.964,18.716 77.148,18.544 L77.148,18.544 L76.836,18.034 C76.792,17.966 76.742,17.932 76.686,17.932 C76.654,17.932 76.617,17.947 76.575,17.977 C76.533,18.007 76.482,18.04 76.422,18.076 C76.362,18.112 76.291,18.145 76.209,18.175 C76.127,18.205 76.03,18.22 75.918,18.22 C75.722,18.22 75.562,18.158 75.438,18.034 C75.314,17.91 75.252,17.72 75.252,17.464 L75.252,17.464 L75.252,13.816 L76.992,13.816 L76.992,13.042 L75.252,13.042 L75.252,10.948 L74.712,10.948 C74.644,10.948 74.588,10.967 74.544,11.005 C74.5,11.043 74.474,11.092 74.466,11.152 L74.466,11.152 L74.22,13.03 L73.224,13.156 L73.224,13.582 C73.224,13.662 73.246,13.721 73.29,13.759 C73.334,13.797 73.388,13.816 73.452,13.816 L73.452,13.816 L74.184,13.816 L74.184,17.536 C74.184,18.04 74.313,18.426 74.571,18.694 C74.829,18.962 75.198,19.096 75.678,19.096 Z M83.088,19.084 C83.532,19.084 83.933,19.011 84.291,18.865 C84.649,18.719 84.953,18.51 85.203,18.238 C85.453,17.966 85.645,17.638 85.779,17.254 C85.913,16.87 85.98,16.438 85.98,15.958 C85.98,15.482 85.913,15.051 85.779,14.665 C85.645,14.279 85.453,13.95 85.203,13.678 C84.953,13.406 84.649,13.196 84.291,13.048 C83.933,12.9 83.532,12.826 83.088,12.826 C82.644,12.826 82.243,12.9 81.885,13.048 C81.527,13.196 81.222,13.406 80.97,13.678 C80.718,13.95 80.524,14.279 80.388,14.665 C80.252,15.051 80.184,15.482 80.184,15.958 C80.184,16.438 80.252,16.87 80.388,17.254 C80.524,17.638 80.718,17.966 80.97,18.238 C81.222,18.51 81.527,18.719 81.885,18.865 C82.243,19.011 82.644,19.084 83.088,19.084 Z M83.088,18.25 C82.784,18.25 82.52,18.198 82.296,18.094 C82.072,17.99 81.885,17.841 81.735,17.647 C81.585,17.453 81.473,17.214 81.399,16.93 C81.325,16.646 81.288,16.324 81.288,15.964 C81.288,15.604 81.325,15.281 81.399,14.995 C81.473,14.709 81.585,14.468 81.735,14.272 C81.885,14.076 82.072,13.926 82.296,13.822 C82.52,13.718 82.784,13.666 83.088,13.666 C83.688,13.666 84.136,13.868 84.432,14.272 C84.728,14.676 84.876,15.24 84.876,15.964 C84.876,16.684 84.728,17.245 84.432,17.647 C84.136,18.049 83.688,18.25 83.088,18.25 Z M88.368,19 L88.368,14.524 C88.6,14.264 88.853,14.058 89.127,13.906 C89.401,13.754 89.696,13.678 90.012,13.678 C90.444,13.678 90.765,13.805 90.975,14.059 C91.185,14.313 91.29,14.67 91.29,15.13 L91.29,15.13 L91.29,19 L92.358,19 L92.358,15.13 C92.358,14.786 92.314,14.472 92.226,14.188 C92.138,13.904 92.009,13.661 91.839,13.459 C91.669,13.257 91.457,13.101 91.203,12.991 C90.949,12.881 90.656,12.826 90.324,12.826 C89.896,12.826 89.519,12.916 89.193,13.096 C88.867,13.276 88.572,13.512 88.308,13.804 L88.308,13.804 L88.224,13.144 C88.184,12.996 88.088,12.922 87.936,12.922 L87.936,12.922 L87.3,12.922 L87.3,19 L88.368,19 Z" id="Getiton" fill="#06262D" fill-rule="nonzero"></path>
            <path d="M54.312,39.128 C54.7866667,39.128 55.2293333,39.1026667 55.64,39.052 C56.0506667,39.0013333 56.436,38.9253333 56.796,38.824 C57.156,38.7226667 57.4946667,38.5933333 57.812,38.436 C58.1293333,38.2786667 58.4346667,38.0933333 58.728,37.88 L58.728,37.88 L58.728,33.2 L54.88,33.2 L54.88,34.416 C54.88,34.528 54.92,34.6226667 55,34.7 C55.08,34.7773333 55.1893333,34.816 55.328,34.816 L55.328,34.816 L56.776,34.816 L56.776,36.92 C56.4506667,37.0746667 56.108,37.196 55.748,37.284 C55.388,37.372 54.9653333,37.416 54.48,37.416 C53.9306667,37.416 53.424,37.3213333 52.96,37.132 C52.496,36.9426667 52.096,36.6693333 51.76,36.312 C51.424,35.9546667 51.1626667,35.516 50.976,34.996 C50.7893333,34.476 50.696,33.8826667 50.696,33.216 C50.696,32.5973333 50.784,32.0373333 50.96,31.536 C51.136,31.0346667 51.3866667,30.6053333 51.712,30.248 C52.0373333,29.8906667 52.4306667,29.616 52.892,29.424 C53.3533333,29.232 53.8693333,29.136 54.44,29.136 C54.792,29.136 55.1026667,29.16 55.372,29.208 C55.6413333,29.256 55.884,29.3173333 56.1,29.392 C56.316,29.4666667 56.5133333,29.5546667 56.692,29.656 C56.8706667,29.7573333 57.0453333,29.8586667 57.216,29.96 C57.3493333,30.0453333 57.48,30.088 57.608,30.088 C57.8106667,30.088 57.9733333,29.9893333 58.096,29.792 L58.096,29.792 L58.72,28.816 C58.24,28.368 57.6546667,28.004 56.964,27.724 C56.2733333,27.444 55.456,27.304 54.512,27.304 C53.5893333,27.304 52.7573333,27.448 52.016,27.736 C51.2746667,28.024 50.644,28.4293333 50.124,28.952 C49.604,29.4746667 49.2026667,30.0986667 48.92,30.824 C48.6373333,31.5493333 48.496,32.3466667 48.496,33.216 C48.496,34.0746667 48.6413333,34.8666667 48.932,35.592 C49.2226667,36.3173333 49.6266667,36.9413333 50.144,37.464 C50.6613333,37.9866667 51.2746667,38.3946667 51.984,38.688 C52.6933333,38.9813333 53.4693333,39.128 54.312,39.128 Z M64.128,39.12 C64.7413333,39.12 65.2973333,39.0213333 65.796,38.824 C66.2946667,38.6266667 66.72,38.344 67.072,37.976 C67.424,37.608 67.696,37.1626667 67.888,36.64 C68.08,36.1173333 68.176,35.5306667 68.176,34.88 C68.176,34.2346667 68.08,33.6506667 67.888,33.128 C67.696,32.6053333 67.424,32.1626667 67.072,31.8 C66.72,31.4373333 66.2946667,31.1573333 65.796,30.96 C65.2973333,30.7626667 64.7413333,30.664 64.128,30.664 C63.5146667,30.664 62.9573333,30.7626667 62.456,30.96 C61.9546667,31.1573333 61.5266667,31.4373333 61.172,31.8 C60.8173333,32.1626667 60.5426667,32.6053333 60.348,33.128 C60.1533333,33.6506667 60.056,34.2346667 60.056,34.88 C60.056,35.5306667 60.1533333,36.1173333 60.348,36.64 C60.5426667,37.1626667 60.8173333,37.608 61.172,37.976 C61.5266667,38.344 61.9546667,38.6266667 62.456,38.824 C62.9573333,39.0213333 63.5146667,39.12 64.128,39.12 Z M64.128,37.6 C63.4346667,37.6 62.9226667,37.3693333 62.592,36.908 C62.2613333,36.4466667 62.096,35.776 62.096,34.896 C62.096,34.016 62.2613333,33.3426667 62.592,32.876 C62.9226667,32.4093333 63.4346667,32.176 64.128,32.176 C64.8106667,32.176 65.316,32.408 65.644,32.872 C65.972,33.336 66.136,34.0106667 66.136,34.896 C66.136,35.7813333 65.972,36.4533333 65.644,36.912 C65.316,37.3706667 64.8106667,37.6 64.128,37.6 Z M73.224,39.12 C73.8373333,39.12 74.3933333,39.0213333 74.892,38.824 C75.3906667,38.6266667 75.816,38.344 76.168,37.976 C76.52,37.608 76.792,37.1626667 76.984,36.64 C77.176,36.1173333 77.272,35.5306667 77.272,34.88 C77.272,34.2346667 77.176,33.6506667 76.984,33.128 C76.792,32.6053333 76.52,32.1626667 76.168,31.8 C75.816,31.4373333 75.3906667,31.1573333 74.892,30.96 C74.3933333,30.7626667 73.8373333,30.664 73.224,30.664 C72.6106667,30.664 72.0533333,30.7626667 71.552,30.96 C71.0506667,31.1573333 70.6226667,31.4373333 70.268,31.8 C69.9133333,32.1626667 69.6386667,32.6053333 69.444,33.128 C69.2493333,33.6506667 69.152,34.2346667 69.152,34.88 C69.152,35.5306667 69.2493333,36.1173333 69.444,36.64 C69.6386667,37.1626667 69.9133333,37.608 70.268,37.976 C70.6226667,38.344 71.0506667,38.6266667 71.552,38.824 C72.0533333,39.0213333 72.6106667,39.12 73.224,39.12 Z M73.224,37.6 C72.5306667,37.6 72.0186667,37.3693333 71.688,36.908 C71.3573333,36.4466667 71.192,35.776 71.192,34.896 C71.192,34.016 71.3573333,33.3426667 71.688,32.876 C72.0186667,32.4093333 72.5306667,32.176 73.224,32.176 C73.9066667,32.176 74.412,32.408 74.74,32.872 C75.068,33.336 75.232,34.0106667 75.232,34.896 C75.232,35.7813333 75.068,36.4533333 74.74,36.912 C74.412,37.3706667 73.9066667,37.6 73.224,37.6 Z M81.68,41.888 C82.3093333,41.888 82.8693333,41.8066667 83.36,41.644 C83.8506667,41.4813333 84.2653333,41.2666667 84.604,41 C84.9426667,40.7333333 85.2013333,40.4293333 85.38,40.088 C85.5586667,39.7466667 85.648,39.3946667 85.648,39.032 C85.648,38.6426667 85.572,38.324 85.42,38.076 C85.268,37.828 85.068,37.632 84.82,37.488 C84.572,37.344 84.2906667,37.2386667 83.976,37.172 C83.6613333,37.1053333 83.3386667,37.0586667 83.008,37.032 C82.6773333,37.0053333 82.3546667,36.988 82.04,36.98 C81.7253333,36.972 81.444,36.952 81.196,36.92 C80.948,36.888 80.748,36.8333333 80.596,36.756 C80.444,36.6786667 80.368,36.5573333 80.368,36.392 C80.368,36.2 80.496,36.0266667 80.752,35.872 C81.0453333,35.9306667 81.3466667,35.96 81.656,35.96 C82.1146667,35.96 82.54,35.8973333 82.932,35.772 C83.324,35.6466667 83.6626667,35.4693333 83.948,35.24 C84.2333333,35.0106667 84.4573333,34.732 84.62,34.404 C84.7826667,34.076 84.864,33.7093333 84.864,33.304 C84.864,33.1333333 84.8493333,32.9706667 84.82,32.816 C84.7906667,32.6613333 84.7493333,32.5146667 84.696,32.376 L84.696,32.376 L85.432,32.24 C85.5866667,32.2133333 85.696,32.1653333 85.76,32.096 C85.824,32.0266667 85.856,31.9306667 85.856,31.808 L85.856,31.808 L85.856,31.072 L83.496,31.072 C83.24,30.9333333 82.9573333,30.828 82.648,30.756 C82.3386667,30.684 82.008,30.648 81.656,30.648 C81.1866667,30.648 80.7533333,30.7093333 80.356,30.832 C79.9586667,30.9546667 79.6146667,31.132 79.324,31.364 C79.0333333,31.596 78.8066667,31.876 78.644,32.204 C78.4813333,32.532 78.4,32.8986667 78.4,33.304 C78.4,33.8053333 78.5186667,34.2426667 78.756,34.616 C78.9933333,34.9893333 79.32,35.288 79.736,35.512 C79.5546667,35.6026667 79.3973333,35.7053333 79.264,35.82 C79.1306667,35.9346667 79.02,36.056 78.932,36.184 C78.844,36.312 78.7786667,36.4413333 78.736,36.572 C78.6933333,36.7026667 78.672,36.8293333 78.672,36.952 C78.672,37.2506667 78.7333333,37.4933333 78.856,37.68 C78.9786667,37.8666667 79.1413333,38.016 79.344,38.128 C78.928,38.2826667 78.6026667,38.4906667 78.368,38.752 C78.1333333,39.0133333 78.016,39.336 78.016,39.72 C78.016,40.0026667 78.0906667,40.2746667 78.24,40.536 C78.3893333,40.7973333 78.6146667,41.028 78.916,41.228 C79.2173333,41.428 79.5973333,41.588 80.056,41.708 C80.5146667,41.828 81.056,41.888 81.68,41.888 Z M81.656,34.696 C81.416,34.696 81.204,34.6626667 81.02,34.596 C80.836,34.5293333 80.684,34.436 80.564,34.316 C80.444,34.196 80.3533333,34.0533333 80.292,33.888 C80.2306667,33.7226667 80.2,33.544 80.2,33.352 C80.2,32.9466667 80.3213333,32.6253333 80.564,32.388 C80.8066667,32.1506667 81.1706667,32.032 81.656,32.032 C82.1413333,32.032 82.5053333,32.1506667 82.748,32.388 C82.9906667,32.6253333 83.112,32.9466667 83.112,33.352 C83.112,33.5493333 83.0813333,33.7306667 83.02,33.896 C82.9586667,34.0613333 82.868,34.2026667 82.748,34.32 C82.628,34.4373333 82.4773333,34.5293333 82.296,34.596 C82.1146667,34.6626667 81.9013333,34.696 81.656,34.696 Z M81.712,40.48 C81.3493333,40.48 81.0426667,40.4546667 80.792,40.404 C80.5413333,40.3533333 80.3373333,40.2826667 80.18,40.192 C80.0226667,40.1013333 79.908,39.9933333 79.836,39.868 C79.764,39.7426667 79.728,39.608 79.728,39.464 C79.728,39.2453333 79.796,39.052 79.932,38.884 C80.068,38.716 80.248,38.5706667 80.472,38.448 C80.7173333,38.48 80.972,38.5026667 81.236,38.516 C81.5,38.5293333 81.756,38.5426667 82.004,38.556 C82.252,38.5693333 82.4866667,38.5893333 82.708,38.616 C82.9293333,38.6426667 83.1226667,38.684 83.288,38.74 C83.4533333,38.796 83.584,38.8746667 83.68,38.976 C83.776,39.0773333 83.824,39.208 83.824,39.368 C83.824,39.528 83.784,39.676 83.704,39.812 C83.624,39.948 83.4973333,40.0653333 83.324,40.164 C83.1506667,40.2626667 82.9306667,40.34 82.664,40.396 C82.3973333,40.452 82.08,40.48 81.712,40.48 Z M89.2,39 L89.2,27.112 L87.224,27.112 L87.224,39 L89.2,39 Z M94.92,39.12 C95.208,39.12 95.5053333,39.0986667 95.812,39.056 C96.1186667,39.0133333 96.42,38.94 96.716,38.836 C97.012,38.732 97.296,38.5933333 97.568,38.42 C97.84,38.2466667 98.0853333,38.032 98.304,37.776 L98.304,37.776 L97.728,37.056 C97.6853333,36.9973333 97.6346667,36.952 97.576,36.92 C97.5173333,36.888 97.448,36.872 97.368,36.872 C97.2453333,36.872 97.1186667,36.9093333 96.988,36.984 C96.8573333,37.0586667 96.7053333,37.1413333 96.532,37.232 C96.3586667,37.3226667 96.156,37.4053333 95.924,37.48 C95.692,37.5546667 95.416,37.592 95.096,37.592 C94.4453333,37.592 93.9226667,37.3946667 93.528,37 C93.1333333,36.6053333 92.9066667,35.9866667 92.848,35.144 L92.848,35.144 L97.92,35.144 C98.0106667,35.144 98.0853333,35.132 98.144,35.108 C98.2026667,35.084 98.2493333,35.044 98.284,34.988 C98.3186667,34.932 98.3426667,34.8546667 98.356,34.756 C98.3693333,34.6573333 98.376,34.5333333 98.376,34.384 C98.376,33.792 98.288,33.2653333 98.112,32.804 C97.936,32.3426667 97.6906667,31.9533333 97.376,31.636 C97.0613333,31.3186667 96.6866667,31.0773333 96.252,30.912 C95.8173333,30.7466667 95.3413333,30.664 94.824,30.664 C94.2106667,30.664 93.66,30.7706667 93.172,30.984 C92.684,31.1973333 92.2706667,31.4866667 91.932,31.852 C91.5933333,32.2173333 91.3333333,32.6466667 91.152,33.14 C90.9706667,33.6333333 90.88,34.16 90.88,34.72 C90.88,35.44 90.984,36.0733333 91.192,36.62 C91.4,37.1666667 91.6853333,37.6253333 92.048,37.996 C92.4106667,38.3666667 92.8373333,38.6466667 93.328,38.836 C93.8186667,39.0253333 94.3493333,39.12 94.92,39.12 Z M96.6,33.952 L92.888,33.952 C92.9786667,33.3546667 93.1866667,32.8933333 93.512,32.568 C93.8373333,32.2426667 94.288,32.08 94.864,32.08 C95.1573333,32.08 95.4133333,32.1293333 95.632,32.228 C95.8506667,32.3266667 96.032,32.4613333 96.176,32.632 C96.32,32.8026667 96.4266667,33.0013333 96.496,33.228 C96.5653333,33.4546667 96.6,33.696 96.6,33.952 L96.6,33.952 Z M105.408,39 L105.408,34.928 L107.024,34.928 C107.776,34.928 108.432,34.8346667 108.992,34.648 C109.552,34.4613333 110.018667,34.2 110.392,33.864 C110.765333,33.528 111.045333,33.1266667 111.232,32.66 C111.418667,32.1933333 111.512,31.68 111.512,31.12 C111.512,30.5813333 111.424,30.0853333 111.248,29.632 C111.072,29.1786667 110.8,28.7893333 110.432,28.464 C110.064,28.1386667 109.597333,27.8853333 109.032,27.704 C108.466667,27.5226667 107.797333,27.432 107.024,27.432 L107.024,27.432 L103.256,27.432 L103.256,39 L105.408,39 Z M107.024,33.248 L105.408,33.248 L105.408,29.096 L107.024,29.096 C107.418667,29.096 107.762667,29.1426667 108.056,29.236 C108.349333,29.3293333 108.592,29.464 108.784,29.64 C108.976,29.816 109.12,30.0293333 109.216,30.28 C109.312,30.5306667 109.36,30.8106667 109.36,31.12 C109.36,31.4453333 109.312,31.74 109.216,32.004 C109.12,32.268 108.976,32.492 108.784,32.676 C108.592,32.86 108.349333,33.0013333 108.056,33.1 C107.762667,33.1986667 107.418667,33.248 107.024,33.248 L107.024,33.248 Z M115.176,39 L115.176,27.112 L113.2,27.112 L113.2,39 L115.176,39 Z M119.384,39.128 C119.677333,39.128 119.944,39.104 120.184,39.056 C120.424,39.008 120.650667,38.936 120.864,38.84 C121.077333,38.744 121.284,38.6253333 121.484,38.484 C121.684,38.3426667 121.888,38.1786667 122.096,37.992 L122.096,37.992 L122.272,38.576 C122.325333,38.7466667 122.405333,38.86 122.512,38.916 C122.618667,38.972 122.765333,39 122.952,39 L122.952,39 L123.84,39 L123.84,33.816 C123.84,33.352 123.772,32.9253333 123.636,32.536 C123.5,32.1466667 123.301333,31.812 123.04,31.532 C122.778667,31.252 122.46,31.0333333 122.084,30.876 C121.708,30.7186667 121.28,30.64 120.8,30.64 C119.466667,30.64 118.328,31.072 117.384,31.936 L117.384,31.936 L117.744,32.568 C117.802667,32.6693333 117.88,32.7546667 117.976,32.824 C118.072,32.8933333 118.186667,32.928 118.32,32.928 C118.48,32.928 118.626667,32.8906667 118.76,32.816 C118.893333,32.7413333 119.038667,32.6573333 119.196,32.564 C119.353333,32.4706667 119.538667,32.3866667 119.752,32.312 C119.965333,32.2373333 120.232,32.2 120.552,32.2 C120.994667,32.2 121.332,32.332 121.564,32.596 C121.796,32.86 121.912,33.2666667 121.912,33.816 L121.912,33.816 L121.912,34.296 C120.978667,34.3173333 120.197333,34.408 119.568,34.568 C118.938667,34.728 118.434667,34.9293333 118.056,35.172 C117.677333,35.4146667 117.406667,35.6866667 117.244,35.988 C117.081333,36.2893333 117,36.5946667 117,36.904 C117,37.272 117.058667,37.5946667 117.176,37.872 C117.293333,38.1493333 117.457333,38.3813333 117.668,38.568 C117.878667,38.7546667 118.130667,38.8946667 118.424,38.988 C118.717333,39.0813333 119.037333,39.128 119.384,39.128 Z M120,37.768 C119.669333,37.768 119.401333,37.6933333 119.196,37.544 C118.990667,37.3946667 118.888,37.1466667 118.888,36.8 C118.888,36.624 118.937333,36.4613333 119.036,36.312 C119.134667,36.1626667 119.301333,36.032 119.536,35.92 C119.770667,35.808 120.081333,35.716 120.468,35.644 C120.854667,35.572 121.336,35.5226667 121.912,35.496 L121.912,35.496 L121.912,36.88 C121.768,37.0293333 121.625333,37.1586667 121.484,37.268 C121.342667,37.3773333 121.196,37.4693333 121.044,37.544 C120.892,37.6186667 120.730667,37.6746667 120.56,37.712 C120.389333,37.7493333 120.202667,37.768 120,37.768 Z M128.04,41.68 C128.232,41.68 128.374667,41.644 128.468,41.572 C128.561333,41.5 128.637333,41.3946667 128.696,41.256 L128.696,41.256 L133.168,30.792 L131.584,30.792 C131.461333,30.792 131.350667,30.8266667 131.252,30.896 C131.153333,30.9653333 131.082667,31.0533333 131.04,31.16 L131.04,31.16 L129.392,35.408 C129.333333,35.5573333 129.278667,35.704 129.228,35.848 C129.177333,35.992 129.130667,36.1413333 129.088,36.296 C129.056,36.1466667 129.018667,35.9973333 128.976,35.848 C128.933333,35.6986667 128.882667,35.5546667 128.824,35.416 L128.824,35.416 L127.072,31.16 C127.029333,31.064 126.965333,30.9786667 126.88,30.904 C126.794667,30.8293333 126.672,30.792 126.512,30.792 L126.512,30.792 L124.784,30.792 L128.104,38.392 L126.568,41.68 L128.04,41.68 Z" id="GooglePlay" fill="#06262D" fill-rule="nonzero"></path>
        </g>
    </g>
</svg>