<?xml version="1.0" encoding="UTF-8"?>
<svg width="85px" height="85px" viewBox="0 0 85 85" version="1.1" xmlns="http://www.w3.org/2000/svg" xmlns:xlink="http://www.w3.org/1999/xlink">
    <!-- Generator: Sketch 63.1 (92452) - https://sketch.com -->
    <title>Group</title>
    <desc>Created with Sketch.</desc>
    <g id="Website-Notification" stroke="none" stroke-width="1" fill="none" fill-rule="evenodd">
        <g id="Desktop-web-my-tickets-view-tickets-Copy" transform="translate(-754.000000, -313.000000)">
            <g id="Group" transform="translate(754.000000, 313.000000)">
                <circle id="Oval" stroke="#279CF7" stroke-width="2" fill="#E9F5FE" cx="42.5" cy="42.5" r="41.5"></circle>
                <path d="M41.9648438,65.2148438 C43.6289063,65.2148438 45.046875,64.6289062 46.21875,63.4570312 C47.390625,62.2851562 47.9765625,60.8671875 47.9765625,59.203125 L54.5507813,59.203125 C54.9023438,59.203125 55.3945313,59.15625 56.0273438,59.0625 C56.6601563,58.96875 57.1171875,58.6289062 57.3984375,58.0429688 C57.6796875,57.4570312 57.6445313,56.8710938 57.2929688,56.2851562 C56.9414063,55.6992188 56.4609375,55.03125 55.8515625,54.28125 C55.1953125,53.484375 54.5097656,52.546875 53.7949219,51.46875 C53.0800781,50.390625 52.7226563,49.2773438 52.7226563,48.1289062 L52.7226563,40.78125 C52.7226563,39.1875 52.4472656,37.6933594 51.8964844,36.2988281 C51.3457031,34.9042969 50.5839844,33.6855469 49.6113281,32.6425781 C48.6386719,31.5996094 47.4960938,30.7792969 46.1835938,30.1816406 C44.8710938,29.5839844 43.453125,29.2851562 41.9296875,29.2851562 C40.4296875,29.2851562 39.0234375,29.5839844 37.7109375,30.1816406 C36.3984375,30.7792969 35.2617188,31.5996094 34.3007813,32.6425781 C33.3398438,33.6855469 32.5839844,34.9042969 32.0332031,36.2988281 C31.4824219,37.6933594 31.2070313,39.1875 31.2070313,40.78125 L31.2070313,48.1289062 C31.2070313,49.2539062 30.8320313,50.3378906 30.0820313,51.3808594 C29.3320313,52.4238281 28.640625,53.3554688 28.0078125,54.1757812 C27.4453125,54.9257812 27,55.6113281 26.671875,56.2324219 C26.34375,56.8535156 26.3203125,57.4570312 26.6015625,58.0429688 C26.859375,58.5585938 27.2753906,58.8808594 27.8496094,59.0097656 C28.4238281,59.1386719 28.9804688,59.203125 29.5195313,59.203125 L35.953125,59.203125 C35.953125,60.8671875 36.5390625,62.2851562 37.7109375,63.4570312 C38.8828125,64.6289062 40.3007813,65.2148438 41.9648438,65.2148438 Z M54.796875,56.8125 L29.0976563,56.8125 L29.0976563,56.8125 C29.2148438,56.625 29.3496094,56.4257812 29.5019531,56.2148438 C29.6542969,56.0039062 29.8007813,55.8046875 29.9414063,55.6171875 C30.6210938,54.703125 31.4003906,53.6074219 32.2792969,52.3300781 C33.1582031,51.0527344 33.5976563,49.6523438 33.5976563,48.1289062 L33.5976563,40.78125 C33.5976563,39.515625 33.8085938,38.3320312 34.2304688,37.2304688 C34.6523438,36.1289062 35.2382813,35.1679688 35.9882813,34.3476562 C36.7382813,33.5273438 37.6230469,32.8769531 38.6425781,32.3964844 C39.6621094,31.9160156 40.7578125,31.6757812 41.9296875,31.6757812 C43.125,31.6757812 44.2324219,31.9160156 45.2519531,32.3964844 C46.2714844,32.8769531 47.15625,33.5273438 47.90625,34.3476562 C48.65625,35.1679688 49.2480469,36.1289062 49.6816406,37.2304688 C50.1152344,38.3320312 50.3320313,39.515625 50.3320313,40.78125 L50.3320313,48.1289062 C50.3320313,49.6992188 50.7480469,51.1347656 51.5800781,52.4355469 C52.4121094,53.7363281 53.2148438,54.8554688 53.9882813,55.7929688 C54.1289063,55.9570312 54.2695313,56.1269531 54.4101563,56.3027344 C54.5507813,56.4785156 54.6796875,56.6484375 54.796875,56.8125 Z M41.9648438,62.859375 C40.9570313,62.859375 40.0957031,62.5019531 39.3808594,61.7871094 C38.6660156,61.0722656 38.3085938,60.2109375 38.3085938,59.203125 L45.6210938,59.203125 C45.6210938,60.2109375 45.2636719,61.0722656 44.5488281,61.7871094 C43.8339844,62.5019531 42.9726563,62.859375 41.9648438,62.859375 Z" id="" fill="#279CF7" fill-rule="nonzero"></path>
                <circle id="Oval" stroke="#279CF7" fill="#279CF7" cx="51.5" cy="30.5" r="8"></circle>
                <path d="M51.488,35.096 C51.94,35.096 52.361,35.007 52.751,34.829 C53.141,34.651 53.479,34.38 53.765,34.016 C54.051,33.652 54.275,33.191 54.437,32.633 C54.599,32.075 54.68,31.418 54.68,30.662 C54.68,29.902 54.599,29.244 54.437,28.688 C54.275,28.132 54.051,27.672 53.765,27.308 C53.479,26.944 53.141,26.673 52.751,26.495 C52.361,26.317 51.94,26.228 51.488,26.228 C51.036,26.228 50.617,26.317 50.231,26.495 C49.845,26.673 49.51,26.944 49.226,27.308 C48.942,27.672 48.72,28.132 48.56,28.688 C48.4,29.244 48.32,29.902 48.32,30.662 C48.32,31.418 48.4,32.075 48.56,32.633 C48.72,33.191 48.942,33.652 49.226,34.016 C49.51,34.38 49.845,34.651 50.231,34.829 C50.617,35.007 51.036,35.096 51.488,35.096 Z M51.488,33.866 C51.276,33.866 51.071,33.817 50.873,33.719 C50.675,33.621 50.5,33.45 50.348,33.206 C50.196,32.962 50.075,32.634 49.985,32.222 C49.895,31.81 49.85,31.29 49.85,30.662 C49.85,30.034 49.895,29.514 49.985,29.102 C50.075,28.69 50.196,28.362 50.348,28.118 C50.5,27.874 50.675,27.703 50.873,27.605 C51.071,27.507 51.276,27.458 51.488,27.458 C51.704,27.458 51.912,27.507 52.112,27.605 C52.312,27.703 52.489,27.874 52.643,28.118 C52.797,28.362 52.92,28.69 53.012,29.102 C53.104,29.514 53.15,30.034 53.15,30.662 C53.15,31.29 53.104,31.81 53.012,32.222 C52.92,32.634 52.797,32.962 52.643,33.206 C52.489,33.45 52.312,33.621 52.112,33.719 C51.912,33.817 51.704,33.866 51.488,33.866 Z" id="0" fill="#FFFFFF" fill-rule="nonzero"></path>
                <path d="M27,25.09375 C29.6666667,25.4863345 31,26.8196678 31,29.09375" id="Path-12-Copy-2" stroke="#279CF7" stroke-width="2" stroke-linecap="round" transform="translate(29.000000, 27.093750) scale(-1, 1) translate(-29.000000, -27.093750) "></path>
                <path d="M57,19 C61.2792969,19.703125 63.4189453,22.0911458 63.4189453,26.1640625" id="Path-12-Copy" stroke="#279CF7" stroke-width="2" stroke-linecap="round"></path>
                <path d="M21,20 C25.2792969,20.703125 27.4189453,23.0911458 27.4189453,27.1640625" id="Path-12-Copy-3" stroke="#279CF7" stroke-width="2" stroke-linecap="round" transform="translate(24.209473, 23.582031) scale(-1, 1) translate(-24.209473, -23.582031) "></path>
            </g>
        </g>
    </g>
</svg>