<?xml version="1.0" encoding="UTF-8"?>
<svg width="34px" height="34px" viewBox="0 0 34 34" version="1.1" xmlns="http://www.w3.org/2000/svg" xmlns:xlink="http://www.w3.org/1999/xlink">
    <title>Group 2</title>
    <g id="Symbols" stroke="none" stroke-width="1" fill="none" fill-rule="evenodd">
        <g id="Header/mobile/without-cart" transform="translate(-285.000000, -12.000000)" fill-rule="nonzero">
            <g id="Header" transform="translate(0.000000, 4.000000)">
                <g id="My-Account" transform="translate(231.500000, 4.000000)">
                    <g id="Group-2" transform="translate(53.500000, 4.000000)">
                        <circle id="Ellipse_1" stroke="#279CF7" fill="#279CF7" cx="17" cy="17" r="16.5"></circle>
                        <path d="M16.9858332,25 C17.7330288,25 18.3697236,24.7390737 18.8959177,24.2172211 C19.4221117,23.6953686 19.6852087,23.0639269 19.6852087,22.3228963 L22.6371574,22.3228963 C22.7950156,22.3228963 23.0160171,22.3020222 23.3001619,22.260274 C23.5843067,22.2185258 23.7895224,22.0671885 23.915809,21.8062622 C24.0420955,21.5453359 24.0263097,21.2844097 23.8684515,21.0234834 C23.7105933,20.7625571 23.4948537,20.4651011 23.2212328,20.1311155 C22.9265641,19.7762557 22.6187406,19.3587736 22.2977622,18.8786693 C21.9767839,18.3985649 21.8162947,17.902805 21.8162947,17.3913894 L21.8162947,14.1193738 C21.8162947,13.4096543 21.6926391,12.7442922 21.4453279,12.1232877 C21.1980167,11.5022831 20.8559905,10.9595564 20.4192495,10.4951076 C19.9825084,10.0306588 19.4694692,9.66536204 18.8801318,9.39921722 C18.2907945,9.13307241 17.6540997,9 16.9700474,9 C16.296519,9 15.6650862,9.13307241 15.0757488,9.39921722 C14.4864115,9.66536204 13.9760032,10.0306588 13.5445241,10.4951076 C13.113045,10.9595564 12.7736498,11.5022831 12.5263386,12.1232877 C12.2790274,12.7442922 12.1553718,13.4096543 12.1553718,14.1193738 L12.1553718,17.3913894 C12.1553718,17.8923679 11.9869897,18.3750815 11.6502255,18.8395303 C11.3134613,19.3039791 11.0030068,19.7188519 10.718862,20.0841487 C10.4662889,20.4181344 10.2663351,20.7234181 10.1190008,21 C9.97166647,21.2765819 9.96114259,21.5453359 10.0874292,21.8062622 C10.2031919,22.0358774 10.3899907,22.1793868 10.6478258,22.2367906 C10.9056609,22.2941944 11.1556031,22.3228963 11.3976524,22.3228963 L14.2864577,22.3228963 C14.2864577,23.0639269 14.5495548,23.6953686 15.0757488,24.2172211 C15.6019429,24.7390737 16.2386377,25 16.9858332,25 Z M16.9858332,23.9510763 C16.5333063,23.9510763 16.1465537,23.7919113 15.8255753,23.4735812 C15.504597,23.1552511 15.3441078,22.7716895 15.3441078,22.3228963 L18.6275587,22.3228963 C18.6275587,22.7716895 18.4670695,23.1552511 18.1460911,23.4735812 C17.8251128,23.7919113 17.4383601,23.9510763 16.9858332,23.9510763 Z" id="-copy-2" fill="#FFFFFF"></path>
                    </g>
                </g>
            </g>
        </g>
    </g>
</svg>