<?xml version="1.0" encoding="UTF-8"?>
<svg width="41px" height="41px" viewBox="0 0 41 41" version="1.1" xmlns="http://www.w3.org/2000/svg" xmlns:xlink="http://www.w3.org/1999/xlink">
    <title>search</title>
    <g id="VTN" stroke="none" stroke-width="1" fill="none" fill-rule="evenodd">
        <g id="Homepage-changes-UI" transform="translate(-1090.000000, -325.000000)" fill="#FFFFFF" fill-rule="nonzero">
            <g id="Group-16" transform="translate(110.000000, 243.000000)">
                <g id="Input" transform="translate(23.000000, 63.000000)">
                    <path d="M996.75,59.5 C997.088542,59.5 997.388021,59.3697917 997.648438,59.109375 C997.882812,58.875 998,58.5820312 998,58.2304688 C998,57.8789062 997.882812,57.5859375 997.648438,57.3515625 L985.5,45.125 C986.619792,43.7708333 987.505208,42.2408854 988.15625,40.5351562 C988.807292,38.8294271 989.132812,37.0260417 989.132812,35.125 C989.132812,32.9635417 988.722656,30.9322917 987.902344,29.03125 C987.082031,27.1302083 985.96224,25.4765625 984.542969,24.0703125 C983.123698,22.6640625 981.463542,21.5507812 979.5625,20.7304688 C977.661458,19.9101562 975.643229,19.5 973.507812,19.5 C971.346354,19.5 969.315104,19.9101562 967.414062,20.7304688 C965.513021,21.5507812 963.852865,22.6640625 962.433594,24.0703125 C961.014323,25.4765625 959.901042,27.1302083 959.09375,29.03125 C958.286458,30.9322917 957.882812,32.9635417 957.882812,35.125 C957.882812,37.2864583 958.286458,39.3177083 959.09375,41.21875 C959.901042,43.1197917 961.014323,44.7734375 962.433594,46.1796875 C963.852865,47.5859375 965.513021,48.6992188 967.414062,49.5195312 C969.315104,50.3398438 971.346354,50.75 973.507812,50.75 C975.460938,50.75 977.309896,50.4114583 979.054688,49.734375 C980.799479,49.0572917 982.361979,48.1197917 983.742188,46.921875 L995.851562,59.109375 C996.111979,59.3697917 996.411458,59.5 996.75,59.5 Z M973.507812,48.2890625 C971.684896,48.2890625 969.972656,47.9440104 968.371094,47.2539062 C966.769531,46.5638021 965.376302,45.6197917 964.191406,44.421875 C963.00651,43.2239583 962.06901,41.8307292 961.378906,40.2421875 C960.688802,38.6536458 960.34375,36.9479167 960.34375,35.125 C960.34375,33.3020833 960.688802,31.5963542 961.378906,30.0078125 C962.06901,28.4192708 963.00651,27.0260417 964.191406,25.828125 C965.376302,24.6302083 966.769531,23.6861979 968.371094,22.9960938 C969.972656,22.3059896 971.684896,21.9609375 973.507812,21.9609375 C975.304688,21.9609375 977.003906,22.3059896 978.605469,22.9960938 C980.207031,23.6861979 981.60026,24.6302083 982.785156,25.828125 C983.970052,27.0260417 984.907552,28.4192708 985.597656,30.0078125 C986.28776,31.5963542 986.632812,33.3020833 986.632812,35.125 C986.632812,36.9479167 986.28776,38.6536458 985.597656,40.2421875 C984.907552,41.8307292 983.970052,43.2239583 982.785156,44.421875 C981.60026,45.6197917 980.207031,46.5638021 978.605469,47.2539062 C977.003906,47.9440104 975.304688,48.2890625 973.507812,48.2890625 Z" id="search"></path>
                </g>
            </g>
        </g>
    </g>
</svg>