<svg xmlns="http://www.w3.org/2000/svg" width="224.862" height="224.862" viewBox="0 0 224.862 224.862"><defs><style>.a{fill:#0060a8;opacity:0.8;}.b{fill:#70c0fe;opacity:0.684;}.c{fill:#43acfe;opacity:0.761;}</style></defs><g transform="translate(-1 -1.028)"><path class="a" d="M153.326,155.192a10.88,10.88,0,0,1-21.761,0V39.134A18.155,18.155,0,0,0,113.431,21h-94.3A18.155,18.155,0,0,0,1,39.134V155.192a18.155,18.155,0,0,0,18.134,18.134H142.445a18.155,18.155,0,0,0,18.134-18.134V108.043h-7.254ZM48.148,28.254H84.417V68.148a18.134,18.134,0,0,1-36.268,0ZM19.134,166.072a10.894,10.894,0,0,1-10.88-10.88V39.134a10.894,10.894,0,0,1,10.88-10.88H40.895V68.148a25.388,25.388,0,1,0,50.775,0V28.254h21.761a10.894,10.894,0,0,1,10.88,10.88V155.192a18.038,18.038,0,0,0,3.634,10.88Z" transform="translate(0 52.564)"/><rect class="a" width="6" height="50" transform="translate(138.436 161.241)"/><path class="b" d="M136.177,1H41.88A10.894,10.894,0,0,0,31,11.88v54.4h7.254V11.88A3.63,3.63,0,0,1,41.88,8.254h3.627V66.282h7.254V8.254H67.268V146.072H60.014v7.254h76.163a10.894,10.894,0,0,0,10.88-10.88V11.88A10.894,10.894,0,0,0,136.177,1ZM139.8,142.445a3.628,3.628,0,0,1-3.627,3.627H74.522V8.254h61.656A3.63,3.63,0,0,1,139.8,11.88Z" transform="translate(78.804 0.028)"/><path class="c" d="M67.134,5A18.155,18.155,0,0,0,49,23.134a17.954,17.954,0,0,0,1.538,7.254A17.954,17.954,0,0,0,49,37.641a18.134,18.134,0,1,0,36.268,0,17.954,17.954,0,0,0-1.538-7.254,17.954,17.954,0,0,0,1.538-7.254A18.155,18.155,0,0,0,67.134,5Zm0,7.254a10.894,10.894,0,0,1,10.88,10.88c0,.029-.007.058-.007.087a17.774,17.774,0,0,0-21.746,0c0-.029-.007-.058-.007-.087A10.894,10.894,0,0,1,67.134,12.254Zm8.052,18.134a10.751,10.751,0,0,1-16.1,0,10.751,10.751,0,0,1,16.1,0ZM67.134,48.522a10.894,10.894,0,0,1-10.88-10.88c0-.029.007-.058.007-.087a17.774,17.774,0,0,0,21.746,0c0,.029.007.058.007.087A10.894,10.894,0,0,1,67.134,48.522Z" transform="translate(126.087 10.536)"/><path class="a" d="M26.88,52.761A10.88,10.88,0,1,0,16,41.88,10.894,10.894,0,0,0,26.88,52.761Zm0-14.507a3.627,3.627,0,1,1-3.627,3.627A3.628,3.628,0,0,1,26.88,38.254Z" transform="translate(39.402 78.832)"/></g></svg>