<?xml version="1.0" encoding="UTF-8"?>
<svg width="26px" height="26px" viewBox="0 0 26 26" version="1.1" xmlns="http://www.w3.org/2000/svg" xmlns:xlink="http://www.w3.org/1999/xlink">
    <title>tickets copy</title>
    <g id="WC-App-Phase-1" stroke="none" stroke-width="1" fill="none" fill-rule="evenodd">
        <g id="WC-Homepage-with-drop-down" transform="translate(-135.000000, -277.000000)" fill="#FFFFFF" fill-rule="nonzero">
            <g id="Group-16" transform="translate(110.000000, 264.000000)">
                <g id="tickets-copy" transform="translate(37.602604, 26.122045) rotate(-50.000000) translate(-37.602604, -26.122045) translate(27.522604, 18.922045)">
                    <path d="M19.8542881,7.20971795 C20.0241281,7.20971795 20.143016,7.06941976 20.16,6.9115843 L20.16,3.08845872 C20.16,2.91308599 20.0241281,2.79032508 19.8542881,2.7727878 L19.0390564,2.7727878 L18.6823926,0.264957721 C18.6654086,0.0895849877 18.5125527,-0.0156386521 18.3427127,0.00189862116 L13.7400505,0.703389553 L13.7230666,0.703389553 L0.271743892,2.79032508 C0.271743892,2.79032508 0.0169839933,2.8429369 0.0169839933,3.08845872 L0.0169839933,6.89404703 C0.0169839933,7.06941976 0.152855939,7.19218067 0.305711879,7.20971795 C1.05300758,7.20971795 1.64744735,7.82352251 1.64744735,8.59516254 C1.64744735,9.36680256 1.05300758,9.98060713 0.305711879,9.98060713 C0.135871946,9.98060713 0.0169839933,10.1209053 -1.8189894e-12,10.2787408 L-1.8189894e-12,14.0843291 C-1.8189894e-12,14.2597018 0.135871946,14.3824627 0.305711879,14.4 L19.8373041,14.4 C20.0071441,14.4 20.126032,14.2597018 20.143016,14.0843291 L20.143016,10.296278 C20.143016,10.1209053 20.0071441,9.9981444 19.8542881,9.98060713 C19.1069924,9.98060713 18.5125527,9.36680256 18.5125527,8.59516254 C18.5125527,7.82352251 19.1069924,7.20971795 19.8542881,7.20971795 Z M13.5192586,1.36980594 L13.6381466,2.19405778 C13.6551306,2.35189324 13.7910025,2.45711688 13.9268745,2.45711688 L13.9778265,2.45711688 C14.1476664,2.43957961 14.2495703,2.28174415 14.2325864,2.10637142 L14.1136984,1.28211957 L18.1389048,0.668315007 L18.4446167,2.79032508 L4.33091828,2.79032508 L13.5192586,1.36980594 Z M19.5655602,13.8037327 L15.166706,13.8037327 L15.166706,3.79830723 C15.166706,3.62293449 15.030834,3.48263631 14.8609941,3.48263631 C14.6911542,3.48263631 14.5552822,3.62293449 14.5552822,3.79830723 L14.5552822,13.8037327 L0.628407751,13.8037327 L0.628407751,10.5768744 C1.68141533,10.4015017 2.41172704,9.38433984 2.24188711,8.29702889 C2.10601516,7.4377025 1.46062342,6.75374884 0.628407751,6.63098793 L0.628407751,3.40412964 L14.5722662,3.40412964 L14.5722662,4.22838149 C14.5722662,4.40375422 14.7081382,4.54405241 14.8779781,4.54405241 C15.047818,4.54405241 15.18369,4.40375422 15.18369,4.22838149 L15.18369,3.38659237 L19.5825442,3.38659237 L19.5825442,6.61345066 C18.5295366,6.78882339 17.7992249,7.80598524 17.9690649,8.89329618 C18.0709688,9.77015985 18.7163606,10.4365762 19.5655602,10.5768744 L19.5655602,13.8037327 Z" id="Shape" stroke="#FFFFFF" stroke-width="0.6"></path>
                    <path d="M11.1111263,8.20352698 L4.01938161,8.20352698 C3.85597736,8.20352698 3.72525395,8.41686032 3.72525395,8.68352698 C3.72525395,8.95019365 3.85597736,9.16352698 4.01938161,9.16352698 L11.1111263,9.16352698 C11.2745305,9.16352698 11.405254,8.95019365 11.405254,8.68352698 C11.405254,8.41686032 11.2745305,8.20352698 11.1111263,8.20352698 Z" id="Path"></path>
                    <path d="M7.65484324,5.49856944 L4.1089709,5.49856944 C4.02726877,5.49856944 3.96190707,5.71190278 3.96190707,5.97856944 C3.96190707,6.24523611 4.02726877,6.45856944 4.1089709,6.45856944 L7.65484324,6.45856944 C7.73654537,6.45856944 7.80190707,6.24523611 7.80190707,5.97856944 C7.80190707,5.71190278 7.73654537,5.49856944 7.65484324,5.49856944 Z" id="Path-Copy-2"></path>
                    <path d="M10.8744732,10.9084845 L3.78272849,10.9084845 C3.61932424,10.9084845 3.48860083,11.1218179 3.48860083,11.3884845 C3.48860083,11.6551512 3.61932424,11.8684845 3.78272849,11.8684845 L10.8744732,11.8684845 C11.0378774,11.8684845 11.1686008,11.6551512 11.1686008,11.3884845 C11.1686008,11.1218179 11.0378774,10.9084845 10.8744732,10.9084845 Z" id="Path-Copy"></path>
                </g>
            </g>
        </g>
    </g>
</svg>